<?xml version="1.0" standalone="no"?>
<!DOCTYPE svg PUBLIC "-//W3C//DTD SVG 1.1//EN" "http://www.w3.org/Graphics/SVG/1.1/DTD/svg11.dtd" >
<svg xmlns="http://www.w3.org/2000/svg">
<metadata>Generated by IcoMoon</metadata>
<defs>
<font id="icomoon" horiz-adv-x="1024">
<font-face units-per-em="1024" ascent="960" descent="-64" />
<missing-glyph horiz-adv-x="1024" />
<glyph unicode="&#x20;" horiz-adv-x="512" d="" />
<glyph unicode="&#xe900;" glyph-name="order-delivered" d="M102.428 763.73c-14.303-5.496-28.828-20.221-34.255-34.726-6.559-17.531-6.559-416.476 0-434.007 11.377-30.405 30.083-38.996 84.902-38.996h38.925l0.023-19.5c0.041-33.792 8.548-55.071 30.976-77.501 69.745-69.742 187.676-16.916 182.689 81.833l-0.765 15.168h235.077v-9.789c0-47.396 46.577-93.253 99-97.469 57.948-4.659 114.716 45.089 114.97 100.759l0.031 6.5h27.924c42.911 0 63.373 10.86 74.004 39.268 6.769 18.092 5.335 203.745-1.751 226.732-20.603 66.844-70.851 116.063-137.178 134.377-15.196 4.196-20.547 4.454-106.501 5.148l-90.499 0.732v24.241c0 44.997-14.973 70.915-45.932 79.516-15.995 4.444-459.727 2.294-471.642-2.284zM566.661 719.908c9.28-7.299 9.316-8.141 9.329-219.407l0.010-200.502h-191.058l-8.947 9.231c-41.311 42.627-110.19 43.835-152.259 2.67l-12.163-11.901-43.692 0.003c-47.286 0-52.168 0.878-57.032 10.289-4.093 7.913-4.15 396.111-0.059 403.489 5.819 10.501-3.909 10.074 231.439 10.15 217.879 0.069 219.261 0.046 224.43-4.022zM805 613.22c50.678-14.62 88.125-51.003 105.211-102.221 5.558-16.658 8.655-187.249 3.622-199.404-4.060-9.8-10.478-11.597-41.431-11.597l-27.794 0.003-3.804 8.499c-2.092 4.675-10.104 14.884-17.805 22.684-49.503 50.158-131.244 40.625-168.443-19.64l-7.124-11.546h-27.43v318.267l86.5-0.791c74.463-0.681 88.169-1.275 98.499-4.255zM365.135 556.116c37.153 31.836 68.216 57.884 69.033 57.884 2.365 0 26.831-29.875 26.831-32.765 0-2.107-125.975-111.88-147.768-128.765-13.545-10.491-18.691-8.315-68.529 28.997-24.586 18.404-44.703 34.209-44.703 35.118s5.553 9.024 12.337 18.033c6.784 9.011 12.559 16.684 12.833 17.050s16.678-11.507 36.454-26.386l35.958-27.052 67.553 57.887zM775.378 311.316c37.988-19.251 45.527-72.156 14.303-100.367-24.927-22.52-59.676-23.153-83.732-1.523-54.484 48.988 4.116 134.986 69.43 101.891zM323.686 291.917c42.744-18.836 50.189-78.323 13.315-106.373-48.617-36.982-115.41 9.213-98.015 67.789 10.324 34.765 51.159 53.366 84.7 38.584z" />
<glyph unicode="&#xe901;" glyph-name="store" d="M114.158 954.501c-7.69-4.892-14.484-15.127-61.396-92.5l-52.746-87.002-0.008-64.079c-0.010-83.489 2.941-95.060 32.046-125.704l13.947-14.682v-504.535l-12.5-0.008c-29.414-0.018-33.485-7.921-33.485-64.991 0-49.108 0.855-52.713 14.467-61.012 10.278-6.267 984.758-6.267 995.036 0 13.612 8.3 14.467 11.904 14.467 61.012 0 57.070-4.070 64.973-33.485 64.991l-12.5 0.008v504.535l13.947 14.682c29.11 30.646 32.059 42.217 32.038 125.704l-0.013 64.079-52.713 87.002c-47.017 77.601-53.647 87.593-61.386 92.5l-8.676 5.499h-778.394l-8.645-5.499zM253.911 927.501c-0.049-1.375-11.587-34.002-25.638-72.502l-25.549-69.998-159.214-1.047 2.883 4.524c1.585 2.488 21.207 34.862 43.604 71.946 22.397 37.082 42.138 67.802 43.863 68.268 8.625 2.322 120.136 1.216 120.051-1.19zM415.982 929.5c-0.010-0.274-1.293-10.747-2.849-23.268-3.671-29.537-0.819-37.033 14.098-37.033 12.047 0 20.769 24.445 20.769 58.217 0 2.058 13.036 2.583 64 2.583 40.494 0 64-0.719 64-1.961 0-1.546 13.545-114.545 16.607-138.54l0.701-5.499h-162.588l2.865 24.223c3.441 29.089 1.523 34.291-13.059 35.382-11.965 0.893-15.434-4.593-18.353-29.051-1.285-10.755-2.821-22.029-3.412-25.055l-1.078-5.499h-79.841c-45.888 0-79.841 0.765-79.841 1.797 0 1.303 39.66 111.634 50.936 141.704 0.806 2.148 127.122 4.137 127.045 1.999zM759.314 861c13.637-37.399 25.318-70.024 25.958-72.499l1.162-4.5h-160.253l-1.116 6.5c-0.617 3.576-4.26 33.050-8.1 65.5s-7.508 62.387-8.154 66.529l-1.172 7.526 126.881-1.055 24.794-68.001zM889.193 928.819c2.911-0.781 16.622-21.704 44.874-68.472 22.377-37.041 41.974-69.381 43.553-71.869l2.87-4.524-159.201 1.047-52.598 144.998 58.153-0.026c31.987-0.015 60.042-0.535 62.349-1.155zM197.596 699.5c-0.64-48.184-1.052-53.373-5.005-63.127-22.866-56.445-90.458-71.913-134.807-30.851-23.186 21.466-27.62 38.413-27.722 105.979l-0.061 40.499h168.294l-0.699-52.5zM395.62 698.501l-0.62-53.501-6.369-13.445c-33.221-70.129-131.894-63.703-154.678 10.071-3.479 11.261-3.953 18.642-3.953 61.586v48.788h166.239l-0.62-53.499zM596.001 707.274c0-48.353-1.382-60.193-8.95-76.723-29.327-64.059-120.776-64.059-150.103 0-7.567 16.53-8.947 28.37-8.947 76.723v44.726h168v-44.726zM793.999 703.212c0-42.944-0.474-50.324-3.953-61.586-22.789-73.787-121.452-80.21-154.678-10.071l-6.369 13.445-0.62 53.501-0.62 53.499h166.239v-48.788zM993.938 711.501c-0.102-66.831-4.516-84.119-26.888-105.277-44.029-41.641-112.748-26.368-135.642 30.149-3.953 9.754-4.365 14.943-5.005 63.127l-0.699 52.5h168.294l-0.061-40.499zM440.545 574.351c50.532-38.986 124.918-29.862 162.33 19.907l8.812 11.722 4.28-6.927c39.693-64.223 147.681-63.688 190.605 0.947l3.32 5 4.385-6.001c27.502-37.632 76.575-56.502 120.223-46.231l11.5 2.706v-489.475h-527.926l-0.538 205.647-0.535 205.647-5.368 8.11c-11.325 17.111-7.063 16.602-138.765 16.553-125.76-0.049-125.315-0.013-135.291-11.249-9.874-11.118-9.577-4.229-9.577-221.645v-203.064h-49.999v489.475l11.5-2.706c43.648-10.271 92.721 8.599 120.223 46.231l4.385 6.001 3.32-5c42.985-64.727 150.884-65.213 190.659-0.86l4.227 6.84 8.812-11.722c4.846-6.449 13.586-15.406 19.42-19.907zM489.001 499.592c-7.245-2.524-16.33-10.627-20.18-17.992-2.319-4.439-2.821-23.224-2.821-105.5v-100.101h-5.1c-21.289 0-24.886-9.533-24.886-65.999 0-52.923 1.039-57.3 14.966-63.119 11.922-4.982 453.542-4.242 462.897 0.776 13.053 6.999 14.124 11.722 14.124 62.344 0 54.671-4.372 65.999-25.469 65.999h-4.531v98.066c0 115.139 0.113 114.481-21 124.173-9.439 4.334-375.782 5.614-387.999 1.354zM384.786 466.836c0.668-1.741 1.213-92.641 1.213-201.999v-198.838h-225.999v200.668c0 110.367 0.599 201.265 1.334 201.999 3.264 3.264 222.185 1.469 223.452-1.83zM865.518 372.5l0.52-96.502h-32.151c-39.368 0.003-48.156-4.508-41.731-21.412 3.871-10.176 5.368-10.455 56.343-10.524l47.501-0.064v-67.999h-427.999v67.999h143.729c163.53 0 154.271-0.96 154.271 16 0 16.837 7.273 16-139.269 16h-128.732v95.667c0 52.618 0.604 96.271 1.344 97.011s83.315 1.114 183.501 0.835l182.157-0.512 0.517-96.499zM993.001 1.001v-34.002h-962.002l-0.553 31.921c-0.302 17.556-0.105 33.083 0.44 34.504 0.806 2.104 90.22 2.491 481.551 2.081l480.563-0.504v-33.999z" />
<glyph unicode="&#xe902;" glyph-name="circle-check" d="M452.001 892.933c-364.616-50.952-517.734-493.591-262.083-757.642 232.499-240.138 642.624-147.057 747.743 169.71 104.489 314.865-158.807 633.605-485.66 587.932zM561.587 848.97c327.247-40.515 470.208-438.543 243.674-678.431-216.847-229.627-603.456-130.473-684.132 175.46-72.335 274.309 158.477 537.882 440.458 502.971zM582.001 476.792c57.748 63.206 105.306 114.985 105.679 115.064 1.441 0.305 32.32-28.521 32.32-30.175 0-2.609-237.443-261.041-241.144-262.461-5.097-1.956-14.753-1.413-19.487 1.093-6.275 3.323-153.37 129.644-153.37 131.707 0 0.95 6.241 8.97 13.87 17.828l13.868 16.1 132.992-113.997 5.135 4.961c2.824 2.729 52.385 56.676 110.136 119.88z" />
<glyph unicode="&#xe903;" glyph-name="guarantee" d="M463.498 871.022c-76.685-48.251-98.028-59.674-135.898-72.732-32.461-11.192-60.925-17.055-117.601-24.228-48.151-6.090-49.103-6.303-54.999-12.17l-6.001-5.972v-162.46c0-177.416 0.1-179.295 12.291-229.299 23.78-97.541 84.938-191.242 162.947-249.644 40.975-30.676 178.437-114.516 187.758-114.516 9.569 0 153.254 87.882 190.415 116.462 89.339 68.713 149.361 171.648 168.829 289.539 4.58 27.727 6.643 341.588 2.301 349.806-5.76 10.9-9.925 12.124-65.731 19.305-102.18 13.148-134.444 25.242-234.788 88.005-66.708 41.723-56.904 41.016-109.524 7.905zM555.525 820.728c96.837-60.744 140.462-77.018 239.475-89.334l35.999-4.48-0.108-142.956c-0.143-185.37-3.43-209.257-39.388-286.208-39.25-83.991-82.309-126.415-208.348-205.268l-71.155-44.518-71.155 44.518c-131.379 82.194-174.451 126.249-214.454 219.336-30.764 71.585-34.898 107.868-33.964 298.143l0.573 116.961 35.999 4.475c98.721 12.273 142.052 28.319 236.001 87.409 25.298 15.913 46.236 28.989 46.525 29.064 0.289 0.072 20.088-12.142 43.999-27.141zM568.005 515.005c42.337 42.348 77.45 76.995 78.031 76.995s8.008-6.991 16.504-15.537l15.444-15.537-177.091-176.927h-9.001c-4.989 0-11.208 1.459-13.949 3.274-7.066 4.675-87.944 85.294-87.944 87.662 0 2.614 28.324 31.063 30.927 31.063 1.116 0 17.347-15.296 36.065-33.994l34.038-33.994 76.974 76.995z" />
<glyph unicode="&#xe904;" glyph-name="special-product" d="M141.376 892.997c-34.801-9.567-65.149-40.238-74.47-75.259-4.285-16.097-4.285-723.379 0-739.476 9.508-35.72 39.903-65.9 76.093-75.548 7.931-2.115 42.821-2.67 168.502-2.691l158.5-0.023v43.999h-154.926c-153.715 0-155.013 0.036-166.438 4.308-15.534 5.814-30.515 20.795-36.329 36.329l-4.306 11.515v703.698l4.306 11.515c5.814 15.534 20.795 30.515 36.329 36.329 11.228 4.201 14.008 4.306 112.438 4.306h100.925v-284.398l6.802-6.802c9.797-9.797 12.46-9.352 81.664 13.678l61.535 20.475 61.535-20.475c69.204-23.030 71.867-23.475 81.667-13.676l6.799 6.799v284.398l100.925 0.003c117.071 0 115.052 0.282 134.205-18.87 19.896-19.899 18.87-9.651 18.87-188.206v-154.926h43.999l-0.023 158.5c-0.020 130.985-0.52 160.364-2.883 169.239-9.452 35.51-39.846 65.905-75.356 75.356-15.388 4.096-725.45 4.001-740.362-0.097zM617.999 729.999c0-67.1-0.696-121.999-1.546-121.999s-23.104 7.199-49.454 16c-26.348 8.799-51.098 16-54.999 16s-28.652-7.201-54.999-16c-26.35-8.801-48.604-16-49.454-16s-1.546 54.899-1.546 121.999v121.999h211.999v-121.999zM734.73 424.274c-7.455-4.68-6.817-3.062-32.397-82.273l-19.697-61-73.82-1.001c-85.711-1.162-86.971-1.487-86.746-22.4 0.125-11.804 18.698-27.19 116.708-96.689 4.339-3.075 6.943 6.615-23.406-87.099-21.074-65.085-20.28-75.812 5.617-75.812 9.859 0 5.335-2.87 73.531 46.615 28.337 20.562 51.848 37.384 52.25 37.384s26.714-18.9 58.468-41.999c61.596-44.808 65.8-46.938 78.874-39.941 14.036 7.514 13.12 14.868-11.11 89.175-11.551 35.42-21 65.654-21 67.19 0 1.533 25.006 20.908 55.572 43.054 64.891 47.014 63.427 45.658 63.427 58.895 0 8.717-0.814 10.68-6.533 15.79l-6.531 5.837h-147.113l-5.599 17.5c-29.988 93.701-38.431 117.788-43.139 123.054-6.799 7.608-18.604 9.213-27.356 3.72zM779.21 241.999c4.867-4.995 4.915-5 52.598-6.001l47.726-0.998-35.955-25.999c-49.034-35.459-47.48-30.451-27.761-89.454l13.816-41.347-21.317 15.565c-52.411 38.272-52.349 38.234-61.338 38.234-9.492 0-8.85 0.384-51.295-30.6-16.12-11.768-29.745-21.399-30.275-21.399s5.302 19.087 12.959 42.414c18.772 57.198 21.14 50.749-32.986 89.784l-31.616 22.802 47.91 0.998c59.372 1.242 52.268-4.042 70.689 52.575l14.272 43.868 13.85-42.721c9.633-29.714 15.332-44.242 18.721-47.721z" />
<glyph unicode="&#xe905;" glyph-name="special-rug" d="M341 956.669c-9.731-5.14-12.989-8.852-21.652-24.671-10.245-18.698-22.3-30.902-40.348-40.845-40.74-22.444-41.385-55.301-1.551-79.155 23.48-14.060 29.768-20.314 41.574-41.349 22.676-40.399 57.746-39.939 80.074 1.050 9.608 17.633 20.82 28.936 38.272 38.579 41.958 23.183 42.67 56.517 1.723 80.617-21.14 12.442-30.628 22.17-42.107 43.182-12.977 23.752-36.116 33.091-55.985 22.592zM371.141 913.5c9.843-18.263 31.483-40.328 48.095-49.037 21.496-11.272 21.606-14.802 0.817-26.209-15.634-8.579-36.567-27.894-43.446-40.087-16.899-29.965-18.778-30.495-30.738-8.668-10.806 19.715-29.996 38.899-49.37 49.352-19.674 10.616-19.643 13.965 0.238 24.876 21.010 11.533 34.501 24.714 47.135 46.060 13.903 23.488 16.425 23.831 27.269 3.715zM720.23 780.997c-11.948-3.725-20.818-12.872-31.89-32.878-13.437-24.287-28.024-39.099-51.067-51.863-33.856-18.757-44.989-39.916-34.376-65.321l2.898-6.935h-213.158l-2.527 11.5c-26.086 118.771-285.381 134.656-341.588 20.928l-7.521-15.219-0.52-303.030c-0.476-277.673-0.243-303.875 2.796-313.106 11.4-34.632 49.802-65.687 98.801-79.898 32.174-9.331 26.015-9.172 353.923-9.124l309 0.044 11.356 4.672c14.18 5.832 25.938 15.032 33.784 26.435l6.052 8.799h43.54c50.314 0 59.185 1.659 71.191 13.32 24.691 23.98 18.862 62.764-11.924 79.337-7.352 3.958-11.52 4.362-51.5 4.995l-43.5 0.686v29.663h41.267c63.048 0 80.791 10.824 80.714 49.231-0.072 35.74-19.105 46.769-80.714 46.769h-41.267v29.719l43.5 0.64c40.105 0.591 44.124 0.978 51.5 4.966 36.457 19.707 36.252 69.699-0.358 87.88-6.653 3.305-13.263 3.878-51.141 4.434l-43.5 0.64v29.722l42.501 0.018c40.466 0.020 42.977 0.246 52.498 4.736 35.953 16.955 36.173 69.734 0.364 87.071-14.252 6.897-51.489 6.185-57.219-1.096-12.109-15.396-0.63-26.729 27.077-26.729 17.467 0 24.778-4.721 24.778-16 0-14.477-4.751-16-49.907-16h-40.092v93.66l43.5 0.689c48.379 0.763 52.209 1.692 65.9 15.974 23.785 24.814 13.414 67.1-19.287 78.638-6.71 2.365-18.406 3.039-52.864 3.046l-44.247 0.008-8.801 11.392c-4.838 6.267-7.987 11.666-6.999 12.001 15.59 5.263 28.815 24.74 28.787 42.388-0.031 20.718-8.893 32.289-36.782 48.018-23.908 13.484-39.027 28.795-51.999 52.652-16.668 30.664-35.223 40.561-60.977 32.53zM741.476 748.941c2.404-1.682 7.777-9.551 11.945-17.487 14.925-28.413 34.048-47.721 63.514-64.128 27.451-15.286 27.812-23.071 1.733-37.373-30.753-16.865-47.119-32.607-62.026-59.653-18.54-33.641-24.901-33.987-42.25-2.299-14.948 27.305-31.744 44.104-59.894 59.907-31.964 17.946-31.421 23.432 4.239 43.011 20.303 11.149 40.435 31.263 52.357 52.311 15.301 27.021 21.286 32.084 30.382 25.713zM268.605 696.189c33.769-8.906 55.741-20.736 73.339-39.488 19.648-20.936 18.056 4.204 18.056-285.105v-253.691l-10.417 8.236c-35.699 28.219-125.568 50.458-144.315 35.715-13.13-10.33-3.784-27.855 14.856-27.855 42.371 0 90.908-16.65 116.257-39.875 88.125-80.753-94.456-168.573-217.236-104.489-71.885 37.519-58.404 105.756 26.33 133.266 17.508 5.686 23.122 18.493 13.005 29.673-7.785 8.602-41.403-1.779-70.979-21.916l-15.501-10.555 0.044 255.447c0.049 287.882-1.426 261.494 15.713 280.786 18.995 21.379 50.88 35.807 98.243 44.454 13.261 2.422 67.412-0.596 82.606-4.603zM644.001 278.999v-312.998h-306.442l11.789 8.678c16.044 11.809 25.789 23.516 34.399 41.321l7.252 14.999 0.535 280.502 0.532 280.499h251.935v-313.001zM816.98 579.658c3.036-2.388 7.649-8.914 10.25-14.5l4.731-10.158 0.018-276.273 0.020-276.27-5.586-10.696c-10.368-19.845-24.993-25.761-63.688-25.761h-20.726v547.366l8.033 2.406c10.716 3.21 20.57 12.196 25.966 23.672 9.626 20.477 27.525 44.554 33.124 44.554 1.285 0 4.82-1.953 7.857-4.342zM180.457 572.662c19.028 7.654 49.544-1.375 49.544-14.661 0-19.791-49.708-24.072-56.056-4.828-2.317 7.014 1.129 17.324 6.513 19.489zM701.312 527.004l8.689-8.689v-552.315h-33.999l0.061 300.5 0.061 300.498 8.251-15.654c4.536-8.609 12.16-19.564 16.937-24.34zM944.632 547.674c10.363-5.519 12.275-16.067 4.544-25.062l-4.823-5.612-80.353-1.234v34.235h38.131c25.155 0 39.619-0.794 42.501-2.327zM196.106 476.544c-19.54-6.899-34.542-29.934-31.176-47.872 10.598-56.499 107.804-51.922 107.72 5.071-0.051 34.061-39.237 55.972-76.544 42.801zM233.5 444.022c17.19-10.481-2.196-28.641-23.7-22.198-9.715 2.911-15.053 10.097-11.891 16.005 5.35 9.994 24.026 13.245 35.592 6.193zM177.823 322.258c12.723 10.304 52.247 2.977 52.15-9.667-0.108-14.139-7.237-18.591-29.763-18.591-24.33 0-37.21 16.256-22.387 28.257zM947.848 290.821c4.595-3.868 6.152-6.856 6.152-11.822 0-4.964-1.556-7.954-6.152-11.822l-6.154-5.176h-77.693v33.999h77.693l6.154-5.179zM949.092 163.090c3.092-3.092 4.908-7.194 4.908-11.090 0-14.477-4.751-16-49.907-16h-40.092v32h40.092c39.898 0 40.113-0.023 45-4.91zM193.999 102.036c-90.184-11.172-98.468-83.331-11.584-100.915 72.916-14.758 143.13 21.466 123.855 63.895-11.996 26.406-62.776 43.149-112.271 37.020zM233.201 69.844c23.688-3.295 46.175-13.934 43.604-20.631-9.070-23.636-107.896-24.146-121.702-0.63-5.158 8.791 26.309 21.302 58.253 23.163 2.396 0.138 11.325-0.717 19.845-1.902zM948.844 36.152c7.414-6.971 7.012-16.236-0.996-22.973l-6.154-5.179h-77.693v34.232l39.844-0.617c39.014-0.602 39.951-0.717 45-5.463z" />
<glyph unicode="&#xe906;" glyph-name="delivery-bike-outline" d="M512 892.8c-94.605-25.249-128.12-141.074-61.814-213.622l9.905-10.839-7.547-2.391c-38.659-12.26-76.498-54.587-95.603-106.949-4.598-12.593-4.247-12.247-8.502-8.397-10.166 9.201-12.652 9.4-116.874 9.354-111.206-0.051-106.903 0.504-122.519-15.767-9.364-9.759-10.998-21.204-4.001-28.022 7.468-7.273 18.289-6.162 27.551 2.831 7.158 6.956 7.327 7.002 25.306 7.002h18.099v-26.132c0-38.733-1.277-37.868 56-37.868 57.498 0 56-1.047 56 39.119v27.382l16.786-0.881c31.47-1.651 31.647-2.135 30.822-84.326-0.689-68.539-0.855-69.322-15.621-73.298-16.794-4.524-176.735-1.718-183.342 3.215-11.5 8.579-8.998 10.788 12.209 10.788 22.74 0 27.146 2.598 27.146 16 0 13.53-4.321 16-27.999 16h-20.001v32h11.999c14.953 0 20.001 4.040 20.001 16 0 15.68-1.119 16-56 16s-56-0.32-56-16c0-13.53 4.321-16 28.001-16h19.999v-32h-36.001c-41.439 0-43.999-0.932-43.999-16s2.56-16 44.001-16h35.999l0.044-5.499c0.108-13.558 13.78-31.885 28.913-38.758 7.025-3.192 13.806-3.661 53.53-3.699l45.489-0.044-7.132-9.341c-21.975-28.79-38.103-81.277-40.22-130.888-1.569-36.782-2.563-35.771 35.090-35.771h27.712l3.287-13.499c31.534-129.603 219.044-129.603 250.578 0l3.287 13.499h238.848l3.277-13.499c26.376-108.741 170.793-135.020 232.435-42.296 54.026 81.267 1.439 191.956-94.779 199.491l-16.643 1.306-27.82 64.87c-29.86 69.627-29.079 67.241-21.043 64.184 9.708-3.689 28.623-2.58 33.149 1.943 6.428 6.431 6.205 145.795-0.243 152.243-15.457 15.457-67.259-7.598-81.792-36.406-2.452-4.859-4.767-9.18-5.146-9.603-0.376-0.422-4.045 2.184-8.151 5.788-13.148 11.543-23.219 14.81-43.668 14.159-47.127-1.495-52.068-0.627-65.467 11.476-7.565 6.835-20.872 23.127-28.362 34.724l-3.476 5.381 8.653 2.268c17.482 4.582 31.58 18.57 37.844 37.553 1.265 3.835 5.279 9.587 8.919 12.782 16.266 14.282 18.148 29.448 6.095 49.126-10.56 17.239-13.926 36.508-6.382 36.508 14.088 0 11.899 42.775-3.784 73.92-27 53.614-89.772 82.166-147.041 66.88zM575.933 857.050c27.661-9.841 50.222-33.82 58.688-62.38l3.062-10.332-32.34-0.691c-58.639-1.254-75.799-18.412-77.012-76.989l-0.668-32.34-10.332 3.062c-55.020 16.312-83.118 78.1-58.798 129.308 21.266 44.785 71.959 66.529 117.402 50.363zM624.049 744.499c0.074-11.3 3.487-23.951 10.324-38.28 6.758-14.159 7.114-12.657-4.943-20.808-1.964-1.326-4.82-7.194-6.351-13.038-6.559-25.044-17.564-29.166-50.079-18.752l-11.999 3.845-0.561 27.666c-1.111 55.055 6.966 66.030 49.060 66.652l14.5 0.215 0.049-7.501zM534.159 632.151c17.492-6.559 30.851-19.069 53.35-49.971 19.51-26.796 47.055-51.18 57.815-51.18 0.179 0-1.823-6.3-4.449-14.001-2.624-7.7-4.795-18.291-4.823-23.537-0.064-11.799-1.472-11.684-31.053 2.55-23.985 11.54-40.545 25.759-56.471 48.489-14.561 20.777-24.847 24.351-34.56 12.004-7.107-9.034-3-21.732 13.322-41.196l4.772-5.691-6.938-9.446c-8.317-11.333-20.618-36.442-22.336-45.591l-1.234-6.582h-134.108l1.344 13.1c13.036 127.242 84.649 201.316 165.368 171.052zM816 511.949v-44.052l-5.542 2.867c-25.807 13.345-32.589 48.054-13.97 71.48 2.355 2.964 17.098 13.755 18.79 13.755 0.397 0 0.722-19.822 0.722-44.050zM717.985 526.774c8.901-3.564 14.643-10.383 18.906-22.461l2.803-7.951-9.71-4.178c-11.479-4.936-30.1-9.285-47.483-11.087l-12.5-1.295v10.181c0 27.021 24.827 46.057 47.985 36.792zM256 512v-16h-48v32h48v-16zM570.414 475.32c15.683-10.516 39.457-20.664 57.011-24.338 7.135-1.492 13.409-3.151 13.944-3.684 3.581-3.581 46.861-201.267 45.908-209.692-1.815-16.028-17.277-39.782-17.277-26.54 0 14.42-28.57 42.934-43.018 42.934-2.829 0-3.141 5.827-2.865 53.499 0.497 85.312-18.355 119.473-74.867 135.654l-12.861 3.684 3.866 9.81c3.366 8.538 14.769 27.351 16.576 27.351 0.353 0 6.464-3.904 13.583-8.678zM790.861 376.978l37.302-87.025-69.35-96.952-52.549-1.116 5.757 11.558c14.566 29.228 14.111 34.796-12.019 146.829-12.101 51.876-22.001 95.086-22.001 96.023s4.89 1.705 10.87 1.705c14.062 0 36.385 4.739 50.762 10.772 6.252 2.627 11.942 4.877 12.646 5 0.704 0.125 18.066-38.932 38.582-86.794zM520.343 413.99c56.312-8.146 71.606-34.079 71.642-121.49l0.015-36.5h-63.624l-0.701 28.5c-0.829 33.818-4.621 44.636-21.581 61.594-19.538 19.54-24.653 20.808-86.761 21.527-47.058 0.543-53.524 0.996-52.5 3.663 0.643 1.674 1.167 12.419 1.167 23.88v20.836l69.499-0.038c38.226-0.023 75.507-0.909 82.844-1.971zM469 330.683c22.326-12.045 25.508-20.554 26.875-71.862l1.126-42.179 12.71-24.643h-299.712v8.187c0 30.879 21.396 92.063 39.014 111.565 8.796 9.736 27.374 19.676 41.226 22.054 24.397 4.191 169.917 1.649 178.76-3.123zM891 266.596c67.044-20.426 89.334-103.785 41.444-154.985-49.485-52.9-138.888-31.619-159.165 37.888l-3.064 10.501h31.468l1.277-5.814c9.039-41.155 73.802-56.415 106.12-25.006 50.657 49.234-2.588 132.316-68.677 107.162l-10.598-4.032 3.597 5.473c1.981 3.011 8.1 11.886 13.599 19.72l10.002 14.244 11.999-1.052c6.6-0.579 16.499-2.424 22.001-4.099zM623.588 219.402c7.36-4.017 14.392-14.141 14.405-20.731 0.008-5.43-19.405-7.788-50.854-6.18-28.16 1.441-43.502 9.093-52.434 26.153l-2.957 5.642 42.627-0.643c36.457-0.55 43.579-1.165 49.213-4.242zM880.097 201.492c19.031-12.826 19.031-38.159 0-50.985-11.584-7.808-29.233-5.409-38.912 5.289l-3.804 4.204h17.308c20.728 0 25.311 2.898 25.311 16 0 13.092-4.59 16-25.244 16-15.844 0-17.021 0.269-14.5 3.323 9.249 11.203 28.050 14.116 39.841 6.17zM306.862 154.834c13.778-54.892 108.498-54.892 122.276 0 1.254 5.005 1.784 5.166 16.97 5.166h15.677l-3.064-10.501c-26.022-89.196-155.42-89.196-181.443 0l-3.064 10.501h15.677c15.186 0 15.716-0.161 16.97-5.166zM390.815 155.796c-5.773-6.382-13.729-9.797-22.815-9.797s-17.042 3.415-22.815 9.797l-3.804 4.204h53.238l-3.804-4.204z" />
<glyph unicode="&#xe907;" glyph-name="delivery-car-outline" d="M249.313 745.736c-10.332-6.006-10.086-25.969 0.387-31.575 2.808-1.503 60.093-2.161 188.168-2.161h184.133v-103.905c0-76.301 0.635-105.3 2.388-109.151 5.097-11.185 1.828-10.944 149.11-10.944h135.698l23.903-16.131c46.543-31.414 43.748-24.161 44.493-115.369l0.594-72.502h-47.711l-2.378 9.5c-27.791 111.104-194.263 110.874-222.259-0.31l-2.322-9.226-194.337 1.037-1.661 7.997c-12.605 60.675-87.649 100.488-148.964 79.027-34.982-12.242-68.196-48.312-73.523-79.844l-1.382-8.182h-95.831l-4.908-4.908c-6.188-6.188-6.518-16.507-0.765-23.821l4.147-5.271h95.073l2.501-11.5c25.626-117.755 195.533-119.598 223.782-2.427l3.351 13.898 95.565 0.015c74.77 0.010 95.706-0.53 96.225-2.486 0.366-1.375 1.708-7.002 2.98-12.5 13.599-58.76 74.691-96.701 135.232-83.991 43.284 9.088 81.751 47.357 88.438 87.99l1.646 10.002 37.391 0.998c50.017 1.339 44.388-9.708 45.138 88.571 0.904 118.392-0.584 122.619-56.517 160.645l-29.1 19.784-62.922 97.139c-75.244 116.157-81.577 123.195-116.849 129.833-15.357 2.893-493.924 2.665-498.913-0.236zM753.001 705.679c5.499-2.929 12.861-8.328 16.364-12.001 5.535-5.809 110.636-166.057 110.636-168.689 0-0.543-49.951-0.991-110.999-0.991h-111.002v188.285l42.501-0.643c41.59-0.627 42.714-0.755 52.5-5.962zM130.908 619.090c-6.554-6.554-6.589-16.911-0.082-24.479l4.823-5.612 89.677-0.604c49.321-0.333 92.7-0.046 96.397 0.632 15.255 2.806 21.668 19.763 11.369 30.062l-4.91 4.91h-192.364l-4.91-4.91zM18.908 497.091c-4.882-4.882-6.502-14.607-3.666-22.001 3.4-8.858 6.508-9.091 121.505-9.091h108.946l6.154 5.179c8.095 6.812 8.658 18.499 1.244 25.912l-4.91 4.91h-224.364l-4.91-4.91zM86.999 397.583c-12.15-6.968-12.641-24.563-0.855-30.659 9.979-5.161 139.633-4.25 146.345 1.029 8.988 7.071 7.706 24.589-2.189 29.885-5.778 3.092-137.874 2.857-143.301-0.256zM428.385 335.268c73.498-35.172 54.927-143.987-25.697-150.589-71.596-5.862-113.226 82.975-62.605 133.596 23.286 23.283 60.275 30.403 88.302 16.993zM850.432 334.428c65.718-32.351 57.861-126.426-12.296-147.21-51.384-15.224-103.672 27.668-99.587 81.692 4.145 54.799 63.296 89.439 111.882 65.518z" />
<glyph unicode="&#xe908;" glyph-name="mobile-outline" d="M277 956.378c-34.957-11.809-61.005-39.168-69.937-73.462-4.649-17.848-4.649-851.983 0-869.832 9.001-34.565 37.45-63.954 71.77-74.145 14.84-4.408 451.494-4.408 466.335 0 34.319 10.191 62.769 39.58 71.77 74.145 4.649 17.848 4.649 851.983 0 869.832-9.001 34.565-37.45 63.954-71.77 74.145-16.067 4.772-453.911 4.132-468.168-0.684zM731.136 905.057c13.396-3.996 23.503-12.887 30.236-26.598l5.627-11.459v-838.001l-5.627-11.459c-15.319-31.196-1.354-29.542-249.372-29.542-248.018 0.003-234.053-1.654-249.372 29.542l-5.627 11.459v838.001l5.627 11.459c6.572 13.381 16.74 22.546 29.373 26.468 13.806 4.288 424.794 4.411 439.135 0.131zM406.513 872.712c-13.489-6.651-18.516-24.763-10.481-37.763 13.832-22.382 47.954-12.385 47.954 14.052 0 19.796-19.886 32.379-37.473 23.711zM492.792 873.142c-20.324-8.847-20.042-39.811 0.44-48.369 10.424-4.355 114.609-3.986 123.935 0.44 19.41 9.211 19.41 38.362 0 47.572-9.19 4.362-114.483 4.662-124.375 0.356zM488.435 118.843c-56.492-28.152-21.338-113.743 39.322-95.731 56.195 16.689 43.046 100.887-15.757 100.887-10.194 0-15.58-1.178-23.565-5.156z" />
<glyph unicode="&#xe909;" glyph-name="log-out" d="M640 405.333c-23.595 0-42.667-19.115-42.667-42.667v-170.667c0-23.509-19.115-42.667-42.667-42.667h-128v640c0 36.437-23.211 68.992-58.112 81.109l-12.629 4.224h198.741c23.552 0 42.667-19.157 42.667-42.667v-128c0-23.552 19.072-42.667 42.667-42.667s42.667 19.115 42.667 42.667v128c0 70.571-57.429 128-128 128h-458.667c-1.621 0-2.987-0.725-4.565-0.939-2.048 0.171-4.011 0.939-6.101 0.939-47.061 0-85.333-38.272-85.333-85.333v-768c0-36.437 23.211-68.992 58.112-81.109l256.768-85.589c8.704-2.688 17.365-3.968 26.453-3.968 47.061 0 85.333 38.272 85.333 85.333v42.667h128c70.571 0 128 57.429 128 128v170.667c0 23.552-19.072 42.667-42.667 42.667zM1011.499 563.499l-170.667 170.667c-12.203 12.203-30.549 15.872-46.507 9.259-15.915-6.613-26.325-22.187-26.325-39.424v-128h-170.667c-23.552 0-42.667-19.115-42.667-42.667s19.115-42.667 42.667-42.667h170.667v-128c0-17.237 10.411-32.811 26.325-39.424 15.957-6.613 34.304-2.944 46.507 9.259l170.667 170.667c16.683 16.683 16.683 43.648 0 60.331z" />
<glyph unicode="&#xe90a;" glyph-name="phone-outline" d="M179 957.192c-42.798-13.594-146.998-116.826-164.977-163.443-63.644-165.033 123.825-502.879 386.396-696.351 167.194-123.192 349.786-185.818 446.3-153.073 32.545 11.041 45.688 21.286 104.038 81.108 62.339 63.91 71.378 78.533 71.524 115.712 0.159 40.745-3.73 46.428-94.157 137.603-91.5 92.257-99.791 98.391-136.192 100.741-39.424 2.547-54.287-5.816-112.579-63.342l-45.704-45.105-17.3 8.978c-97.887 50.806-226.176 179.049-272.85 272.755l-8.85 17.764 42.314 42.23c24.243 24.195 45.878 47.654 50.657 54.93 22.595 34.404 22.536 76.265-0.154 110.833-11.218 17.091-148.157 153.992-165.169 165.123-23.089 15.104-59.653 21.048-83.3 13.537zM225.869 901.696c6.653-3.133 28.739-23.885 81.411-76.498 106.975-106.852 106.022-99.566 23.672-181.069-62.244-61.601-62.659-62.815-38.4-111.68 55.752-112.294 186.744-243.384 303.956-304.182 47.178-24.471 48.038-24.166 112.492 39.77 80.269 79.626 71.424 80.934 178.399-26.396 86.858-87.153 89.516-91.41 75.633-121.229-6.915-14.856-94.144-104.131-113.298-115.955-103.014-63.601-395.241 78.318-573.286 278.415-172.25 193.585-260.928 415.158-202.962 507.128 9.933 15.762 101.020 106.176 112.515 111.683 11.948 5.727 27.738 5.732 39.869 0.013z" />
<glyph unicode="&#xe90b;" glyph-name="map-outline" d="M457.444 956.879c-196.628-30.6-331.057-213.166-302.354-410.621 18.161-124.943 77.23-238.723 250.88-483.259 24.998-35.2 54.090-76.605 64.65-92.014 21.307-31.091 25.912-34.985 41.38-34.985s20.073 3.894 41.38 34.985c10.56 15.409 39.652 56.814 64.65 92.014 173.824 244.78 232.264 357.373 250.834 483.259 35.41 240.041-172.723 447.77-411.42 410.621zM558.001 895.007c163.236-24.361 276.201-182.308 248.184-347.008-19.592-115.164-76.434-220.472-252.063-466.977-21.153-29.688-39.283-55.34-40.292-57.001-1.633-2.693-2.028-2.693-3.661 0-1.009 1.661-19.139 27.313-40.292 57.001-175.629 246.505-232.471 351.813-252.063 466.977-34.353 201.94 137.516 377.254 340.186 347.008zM466.598 775.048c-126.4-32.671-177.262-186.381-95.491-288.584 92.262-115.313 279.665-74.476 316.027 68.869 33.667 132.718-88.031 253.962-220.536 219.715zM547 712.937c81.917-24.699 110.459-128.748 52.631-191.857-74.022-80.783-205.632-29.499-205.632 80.128 0 79.055 76.38 134.833 153.001 111.729z" />
<glyph unicode="&#xe90c;" glyph-name="filter-2" d="M841 960h-658q-76 0-129.5-53.5t-53.5-129.5v-658q0-76 53.5-129.5t129.5-53.5h658q76 0 129.5 53.5t53.5 129.5v658q0 76-53.5 129.5t-129.5 53.5zM964 119q0-51-36-87t-87-36h-658q-51 0-87 36t-36 87v658q0 51 36 87t87 36h658q51 0 87-36t36-87v-658zM865 735h-456q-10 28-34.5 46t-55.5 18-55.5-18-33.5-46h-71q-13 0-21.5-9t-8.5-21 8.5-21 21.5-9h71q9-28 33.5-46t55.5-18 55.5 18 34.5 46h456q13 0 21.5 9t8.5 21-8.5 21-21.5 9v0zM319 671q-14 0-24 10t-10 24 10 24 24 10 24-10 10-24-10-24-24-10zM865 478h-71q-9 28-33.5 46t-55.5 18-55.5-18-34.5-46h-456q-13 0-21.5-9t-8.5-21 8.5-21 21.5-9h456q10-28 34.5-46t55.5-18 55.5 18 33.5 46h71q13 0 21.5 9t8.5 21-8.5 21-21.5 9zM705 414q-14 0-24 10t-10 24 10 24 24 10 24-10 10-24-10-24-24-10zM865 221h-328q-9 28-33.5 46t-55.5 18-55.5-18-34.5-46h-199q-13 0-21.5-9t-8.5-21 8.5-21 21.5-9h199q10-28 34.5-46t55.5-18 55.5 18 33.5 46h328q13 0 21.5 9t8.5 21-8.5 21-21.5 9zM448 157q-14 0-24.5 10t-10.5 24 10.5 24 24.5 10 24-10 10-24-10-24-24-10v0z" />
<glyph unicode="&#xe90d;" glyph-name="email-outline" d="M34.632 787.354c-12.49-4.616-23.839-14.482-29.325-25.487l-5.307-10.652 0.044-303.107c0.049-339.822-1.234-310.784 14.418-326.436 16.241-16.241-36.959-14.671 497.539-14.671s481.298-1.569 497.539 14.671c15.652 15.652 14.374-13.386 14.374 326.328s1.277 310.676-14.374 326.328c-16.23 16.23 36.603 14.628-495.539 15.027-358.605 0.266-474.54-0.215-479.368-2.002zM945.928 747.246c-8.084-7.603-405.916-304.538-411.927-307.456-10.537-5.115-23.596-6.336-35.067-3.282-8.079 2.153-399.025 291.090-421.834 311.77-1.062 0.963 190.5 1.723 434.929 1.723 371.016 0 436.388-0.415 433.9-2.755zM250.509 565.499c238.252-178.898 225.375-170.499 261.363-170.499 36.672 0 22.264-9.367 261.204 169.815l209.923 157.42 0.515-136.118c0.284-74.865 0.284-197.243 0-271.951l-0.515-135.834-110.587 136.627c-78.436 96.904-112.338 137.352-116.603 139.121-13.396 5.548-27.809-4.664-27.809-19.702 0-8.131-2.65-4.68 117.775-153.377l108.521-134.001-221.148-0.509c-121.631-0.279-320.666-0.279-442.296 0l-221.148 0.509 108.521 134.001c120.425 148.698 117.775 145.247 117.775 153.377 0 15.035-14.413 25.249-27.802 19.704-4.631-1.92-183.416-218.957-225.636-273.912-1.917-2.496-2.45 54.712-2.499 269.33-0.036 149.875 0.407 272.499 0.98 272.499 0.576 0 94.835-70.426 209.464-156.5z" />
<glyph unicode="&#xe90e;" glyph-name="angle-circle-down" d="M512 960q-106 0-199-40-94-40-163.5-109.5t-109.5-163.5q-40-93-40-199t40-199q40-94 109.5-163.5t163.5-109.5q93-40 199-40t199 40q94 40 163.5 109.5t109.5 163.5q40 93 40 199t-40 199q-40 94-109.5 163.5t-163.5 109.5q-93 40-199 40zM512 0q-93 0-174 35-82 36-142.5 96.5t-96.5 142.5q-35 81-35 174t35 174q36 82 96.5 142.5t142.5 96.5q81 35 174 35t174-35q82-36 143-96.5t97-142.5q35-81 35-174t-35-174q-36-82-97-142.5t-143-96.5q-81-35-174-35zM714 563l-202-198-201 198q-9 10-22.5 10t-22.5-10q-10-9-10-22t10-23l224-221q9-9 22.5-9t22.5 9l224 221q10 10 10 23t-10 22q-9 10-22.5 10t-22.5-10v0z" />
<glyph unicode="&#xe90f;" glyph-name="angle-circle-left" d="M512 960q-106 0-199-40-94-40-163.5-109.5t-109.5-163.5q-40-93-40-199t40-199q40-94 109.5-163.5t163.5-109.5q93-40 199-40t199 40q94 40 163.5 109.5t109.5 163.5q40 93 40 199t-40 199q-40 94-109.5 163.5t-163.5 109.5q-93 40-199 40zM512-1q-93 0-174 35-82 36-142.5 97t-96.5 143q-35 81-35 174t35 174q36 82 96.5 142.5t142.5 96.5q81 35 174 35t174-35q82-36 142.5-96.5t96.5-142.5q35-81 35-174t-35-174q-36-82-96.5-143t-142.5-97q-81-35-174-35zM627 694q-9 10-22 10t-23-10l-221-224q-9-9-9-22.5t9-22.5l221-224q10-10 23-10t22 10q10 9 10 22.5t-10 22.5l-198 202 198 201q10 9 10 22.5t-10 22.5v0z" />
<glyph unicode="&#xe910;" glyph-name="angle-circle-up-outline" d="M512 960q-106 0-199-40-94-40-163.5-109.5t-109.5-163.5q-40-93-40-199t40-199q40-94 109.5-163.5t163.5-109.5q93-40 199-40t199 40q94 40 163.5 109.5t109.5 163.5q40 93 40 199t-40 199q-40 94-109.5 163.5t-163.5 109.5q-93 40-199 40zM512 0q-93 0-174 35-82 36-143 96.5t-97 142.5q-35 81-35 174t35 174q36 82 97 142.5t143 96.5q81 35 174 35t174-35q82-36 142.5-96.5t96.5-142.5q35-81 35-174t-35-174q-36-82-96.5-142.5t-142.5-96.5q-81-35-174-35zM534 599q-9 9-22.5 9t-22.5-9l-224-221q-10-10-10-23t10-22q9-10 22.5-10t22.5 10l202 198 201-198q9-10 22.5-10t22.5 10q10 9 10 22t-10 23l-224 221z" />
<glyph unicode="&#xe911;" glyph-name="category-outline" d="M108.001 924.224c-36.675-11.871-61.942-37.594-72.776-74.086-4.861-16.376-4.861-259.899 0-276.275 10.972-36.964 37.673-63.665 74.637-74.637 18.596-5.522 330.499-4.818 339.656 0.763 15.434 9.411 14.467-2.499 14.474 178.148 0.008 142.418-0.366 162.399-3.218 172.001-10.972 36.964-37.673 63.665-74.637 74.637-17.252 5.123-262.113 4.636-278.136-0.55zM636.001 924.224c-36.675-11.871-61.942-37.594-72.776-74.086-5.522-18.596-4.818-330.499 0.763-339.656 9.411-15.434-2.499-14.467 178.148-14.474 142.418-0.008 162.399 0.366 172.001 3.218 36.964 10.972 63.665 37.673 74.637 74.637 4.861 16.376 4.861 259.899 0 276.275-10.972 36.964-37.673 63.665-74.637 74.637-17.252 5.123-262.113 4.636-278.136-0.55zM374.999 858.696c24.975-13.443 23.908-6.349 24.591-163.274l0.591-135.58-135.59 0.579c-187.052 0.799-167.59-16.801-167.59 151.58 0 167.585-16.282 151.793 155.999 151.316 112.584-0.312 114.099-0.371 121.999-4.621zM902.999 858.696c24.768-13.33 24-8.64 24-146.696 0-168.392 19.474-150.779-167.59-151.58l-135.59-0.579 0.591 135.58c0.814 187.103-16.653 168.374 156.59 167.895 112.584-0.312 114.099-0.371 121.999-4.621zM108.001 396.224c-36.675-11.871-61.942-37.594-72.776-74.086-4.861-16.376-4.861-259.899 0-276.275 10.655-35.894 34.982-61.125 70.659-73.288 17.656-6.019 260.582-7.188 280.253-1.349 36.964 10.972 63.665 37.673 74.637 74.637 2.852 9.603 3.226 29.583 3.218 172.001-0.008 180.646 0.96 168.737-14.474 178.148-9.605 5.855-323.479 6.052-341.517 0.212zM574.482 396.012c-15.434-9.411-14.467 2.499-14.474-178.148-0.008-142.418 0.366-162.399 3.218-172.001 10.655-35.894 34.982-61.125 70.659-73.288 17.656-6.019 260.582-7.188 280.253-1.349 36.964 10.972 63.665 37.673 74.637 74.637 4.861 16.376 4.861 259.899 0 276.275-10.972 36.964-37.673 63.665-74.637 74.637-18.596 5.522-330.499 4.818-339.656-0.763zM399.59 200.499c-0.814-186.944 16.783-167.498-151.59-167.498-167.519 0-150.999-16.52-150.999 150.999 0 168.448-19.354 151.432 172.59 151.77l130.591 0.23-0.591-135.501zM902.999 330.696c24.768-13.33 24-8.64 24-146.696 0-167.519 16.52-150.999-150.999-150.999-168.389 0-150.776-19.474-151.59 167.578l-0.591 135.58 135.59-0.579c134.438-0.576 135.66-0.617 143.59-4.884z" />
<glyph unicode="&#xe912;" glyph-name="angle-circle-up" d="M512 960c-282.326 0-512-229.674-512-512s229.674-512 512-512 512 229.674 512 512-229.674 512-512 512zM755.498 332.502c-8.32-8.32-19.242-12.502-30.166-12.502s-21.846 4.182-30.166 12.502l-183.166 183.168-183.168-183.168c-16.682-16.682-43.648-16.682-60.33 0s-16.682 43.648 0 60.33l213.334 213.334c16.682 16.682 43.648 16.682 60.33 0l213.334-213.334c16.682-16.682 16.682-43.648-0.002-60.33z" />
<glyph unicode="&#xe913;" glyph-name="home" d="M471.944 952.886c-16.118-7.675-438.551-425.572-454.879-449.994-41.62-62.252-0.366-141.686 76.928-148.132l15.834-1.321 0.625-163.218c0.612-160.172 0.701-163.428 4.823-174.267 14.605-38.426 37.271-61.332 72.609-73.38 19.407-6.615 202.918-7.119 213.635-0.584 15.217 9.275 14.464 1.807 14.484 144.010 0.023 150.113 0.079 150.472 25.562 165.453l9.436 5.548h126.313l9.843-6.072c24.901-15.36 24.794-14.648 24.822-166.528 0.023-134.912-0.379-129.774 10.993-140.401l5.348-5 96.251-0.558c64.458-0.371 99.756 0.172 106.865 1.649 27.61 5.732 59.512 30.049 72.072 54.932 14.103 27.948 13.292 16.571 14.026 196.227l0.663 162.25 16.402 1.416c57.341 4.946 89.403 39.045 89.403 95.084 0 46.984 22.925 19.863-233.608 276.393-256.53 256.532-229.409 233.608-276.393 233.608-26.936 0-27.21-0.046-42.056-7.114zM527.37 897.902c7.168-2.67 429.583-424.66 433.636-433.198 14.326-30.19-4.211-47.237-52.956-48.704-36.022-1.083-40.2-2.266-47.521-13.437-3.287-5.012-3.597-17.777-4.529-185.472-0.914-164.595-1.295-180.716-4.426-187.348-5.325-11.284-13.169-19.451-24.335-25.339l-10.237-5.399-142.792-1.313-0.653 115.656c-0.776 136.95-1.134 139.041-29.33 170.957-26.55 30.049-41.971 34.414-124.626 35.277-87.729 0.914-102.244-2.563-131.822-31.58-32.095-31.488-33.7-40.038-33.743-179.656l-0.036-110.653-142.999 1.308-10.929 6.001c-28.995 15.918-28.070 8.786-28.078 216.599-0.010 213.468 5.558 192.668-52.042 194.401-48.748 1.467-67.284 18.514-52.959 48.704 3.753 7.908 426.181 430.41 433.009 433.085 6.723 2.632 20.452 2.691 27.369 0.113z" />
<glyph unicode="&#xe914;" glyph-name="angle-circle-right" d="M512 960q-106 0-199-40-94-40-163.5-109.5t-109.5-163.5q-40-93-40-199t40-199q40-94 109.5-163.5t163.5-109.5q93-40 199-40t199 40q94 40 163.5 109.5t109.5 163.5q40 93 40 199t-40 199q-40 94-109.5 163.5t-163.5 109.5q-93 40-199 40zM512 0q-93 0-174 35-82 36-142.5 96.5t-96.5 142.5q-35 81-35 174t35 174q36 82 96.5 143t142.5 97q81 35 174 35t174-35q82-36 142.5-97t96.5-143q35-81 35-174t-35-174q-36-82-96.5-142.5t-142.5-96.5q-81-35-174-35zM442 695q-10 10-23 10t-22-10q-10-9-10-22.5t10-22.5l198-202-198-201q-10-9-10-22.5t10-22.5q9-10 22-10t23 10l221 224q9 9 9 22.5t-9 22.5l-221 224z" />
<glyph unicode="&#xe915;" glyph-name="arrow-circle-down" d="M1024 448q0 106-40 199-41 93-110.5 162.5t-162.5 110.5q-93 40-199 40t-199-40q-93-41-162.5-110.5t-110.5-162.5q-40-93-40-199t40-199q41-93 110.5-162.5t162.5-110.5q93-40 199-40t199 40q93 41 162.5 110.5t110.5 162.5q40 93 40 199zM51 448q0 95 36 179 37 84 99.5 146.5t146.5 99.5q84 36 179 36t179-36q84-37 146.5-99.5t99.5-146.5q36-84 36-179t-36-179q-37-84-99.5-146.5t-146.5-99.5q-84-36-179-36t-179 36q-84 37-146.5 99.5t-99.5 146.5q-36 84-36 179v0zM530 207l144 144q8 8 8 18.5t-8 17.5q-7 8-18 8t-18-8l-100-100v383q0 11-7.5 18.5t-18.5 7.5-18.5-7.5-7.5-18.5v-383l-100 101q-7 7-18 7t-18-7q-8-8-8-18.5t8-17.5l144-144q4-4 8.5-6t9.5-2 9.5 2 8.5 5v0z" />
<glyph unicode="&#xe916;" glyph-name="arrow-circle-left" d="M512-64q106 0 199 40 93 41 162.5 110.5t110.5 162.5q40 93 40 199t-40 199q-41 93-110.5 162.5t-162.5 110.5q-93 40-199 40t-199-40q-93-41-162.5-110.5t-110.5-162.5q-40-93-40-199t40-199q41-93 110.5-162.5t162.5-110.5q93-40 199-40zM512 909q95 0 179-36 84-37 146.5-99.5t99.5-146.5q36-84 36-179t-36-179q-37-84-99.5-146.5t-146.5-99.5q-84-36-179-36t-179 36q-84 37-146.5 99.5t-99.5 146.5q-36 84-36 179t36 179q37 84 99.5 146.5t146.5 99.5q84 36 179 36zM415 286q4-4 8.5-6t9.5-2 10 2 9 6q7 7 7 18t-7 18l-101 100h383q11 0 18.5 7.5t7.5 18.5-7.5 18.5-18.5 7.5h-383l101 100q7 7 7 18t-7 18q-8 8-18.5 8t-17.5-8l-144-144q-8-7-8-17.5t8-18.5l143-144z" />
<glyph unicode="&#xe917;" glyph-name="arrow-circle-right" d="M512-64q106 0 199 40 93 41 162.5 110.5t110.5 162.5q40 93 40 199t-40 199q-41 93-110.5 162.5t-162.5 110.5q-93 40-199 40t-199-40q-93-41-162.5-110.5t-110.5-162.5q-40-93-40-199t40-199q41-93 110.5-162.5t162.5-110.5q93-40 199-40zM512 909q95 0 179-36 84-37 146.5-99.5t99.5-146.5q36-84 36-179t-36-179q-37-84-99.5-146.5t-146.5-99.5q-84-36-179-36t-179 36q-84 37-146.5 99.5t-99.5 146.5q-36 84-36 179t36 179q37 84 99.5 146.5t146.5 99.5q84 36 179 36zM290 422h383l-101-100q-7-7-7-18t7-18q4-4 9-6t10-2 9.5 2 8.5 6l144 144q7 7 7 17.5t-7 18.5l-144 144q-8 7-18.5 7t-17.5-7q-8-8-8-18.5t8-17.5l100-101h-383q-11 0-18.5-7.5t-7.5-17.5q0-11 7.5-18.5t18.5-7.5v0z" />
<glyph unicode="&#xe918;" glyph-name="arrow-circle-up" d="M512-64q106 0 199 40 93 41 162.5 110.5t110.5 162.5q40 93 40 199t-40 199q-41 93-110.5 162.5t-162.5 110.5q-93 40-199 40t-199-40q-93-41-162.5-110.5t-110.5-162.5q-40-93-40-199t40-199q41-93 110.5-162.5t162.5-110.5q93-40 199-40zM512 909q95 0 179-36 84-37 146.5-99.5t99.5-146.5q36-84 36-179t-36-179q-37-84-99.5-146.5t-146.5-99.5q-84-36-179-36t-179 36q-84 37-146.5 99.5t-99.5 146.5q-36 84-36 179t36 179q37 84 99.5 146.5t146.5 99.5q84 36 179 36zM386 509l101 100v-383q0-11 7.5-18.5t17.5-7.5q11 0 18.5 7.5t7.5 18.5v383l100-101q4-3 8.5-5t9.5-2 10 2 8 5q8 8 8 18.5t-8 17.5l-143 144q-8 8-18.5 8t-18.5-8l-143-144q-8-7-8-17.5t8-18.5q7-7 17.5-7t17.5 8z" />
<glyph unicode="&#xe919;" glyph-name="arrow-down" d="M487-54q5-5 11.5-7.5t13.5-2.5 13.5 2.5 11.5 7.5l288 288q11 11 11 26t-11 25q-10 11-25 11t-26-11l-226-227v866q0 15-10.5 25.5t-25.5 10.5-25.5-10.5-10.5-25.5v-866l-226 227q-11 10-26 10t-25-10q-11-11-11-25.5t11-25.5l288-288z" />
<glyph unicode="&#xe91a;" glyph-name="arrow-left" d="M10 473q-5-5-7.5-11.5t-2.5-13.5 2.5-13.5 7.5-11.5l288-288q11-11 26-11t25 11q11 10 11 25t-11 26l-227 226h866q15 0 25.5 10.5t10.5 25.5-10.5 25.5-25.5 10.5h-866l227 226q10 11 10 26t-10 25q-11 11-25.5 11t-25.5-11l-288-288z" />
<glyph unicode="&#xe91b;" glyph-name="arrow-right" d="M0 448q0-15 10.5-25.5t25.5-10.5h866l-227-227q-5-5-7.5-11.5t-2.5-13.5 2.5-13.5 7.5-11.5q11-11 26-11t25 11l288 288q10 10 10 25t-10 26l-288 287q-11 11-25.5 11t-25.5-11q-10-10-10-25t10-26l227-226h-866q-15 0-25.5-10.5t-10.5-25.5v0z" />
<glyph unicode="&#xe91c;" glyph-name="arrow-up" d="M512-64q15 0 25.5 10.5t10.5 25.5v866l227-227q5-5 11.5-7.5t13.5-2.5 13.5 2.5 11.5 7.5q11 11 11 26t-11 25l-288 288q-10 10-25 10t-26-10l-287-288q-11-11-11-25.5t11-25.5q10-10 25-10t26 10l226 227v-866q0-15 10.5-25.5t25.5-10.5z" />
<glyph unicode="&#xe91d;" glyph-name="bell" d="M901 222q-20 30-41.5 81.5t-21.5 167.5v70q0 55-18 105-17 50-48 91t-74 71-93 45v14q0 38-27.5 65.5t-65.5 27.5-65.5-27.5-27.5-65.5v-14q-50-15-93-45t-74-71-48-91q-18-50-18-105v-70q0-116-21.5-167.5t-41.5-81.5q-11-17-20.5-35t-9.5-42q0-28 27-48 27-19 68.5-32t92.5-21q50-7 98-10 14-43 50.5-70.5t82.5-27.5 82.5 27.5 49.5 70.5q49 3 99 10 51 8 92.5 21t68.5 32q27 20 27 48 0 24-9.5 42t-20.5 35v0zM465 867q0 19 14 32.5t33 13.5 33-13.5 14-32.5v-4q-12 2-23.5 3t-23.5 1-23.5-1-23.5-3v4zM512-17q-26 0-47.5 13t-33.5 35q25-1 45.5-1.5t35.5-0.5 35.5 0.5 45.5 1.5q-12-22-33.5-35t-47.5-13zM512 76q-80 0-148 6t-118 16-78 23q-28 12-28 24 0 13 5.5 24t16.5 27q21 32 46 90t25 185v70q0 58 22 109t60 88.5 88 59.5q51 22 109 22t109-22q50-22 88-59.5t60-88.5 22-109v-70q0-127 25-185t46-90q11-16 16.5-27t5.5-24q0-12-28-24-28-13-78-23t-118-16-148-6z" />
<glyph unicode="&#xe91e;" glyph-name="share" d="M812 296c-59.282 0-111.522-29.162-144.334-73.51l-283.686 145.262c4.71 16.054 8.020 32.692 8.020 50.248 0 23.812-4.882 46.45-13.316 67.272l296.89 178.656c33.040-38.776 81.604-63.928 136.426-63.928 99.258 0 180 80.742 180 180s-80.742 180-180 180c-99.258 0-180-80.742-180-180 0-22.874 4.71-44.572 12.524-64.716l-297.774-179.18c-33.012 37.624-80.876 61.896-134.75 61.896-99.258 0-180-80.742-180-180s80.742-180 180-180c60.26 0 113.382 30.018 146.070 75.612l282.752-144.79c-5.208-16.812-8.822-34.322-8.822-52.822 0-99.258 80.742-180 180-180s180 80.742 180 180c0 99.258-80.742 180-180 180z" />
<glyph unicode="&#xe91f;" glyph-name="video-player" d="M964 888h-904c-33.084 0-60-26.916-60-60v-520c0-33.084 26.916-60 60-60h904c33.084 0 60 26.916 60 60v520c0 33.084-26.916 60-60 60zM984 308c0-11.028-8.972-20-20-20h-904c-11.028 0-20 8.972-20 20v520c0 11.028 8.972 20 20 20h904c11.028 0 20-8.972 20-20zM602.6 584.96l-160 100c-6.166 3.854-13.936 4.058-20.294 0.534-6.36-3.524-10.304-10.222-10.304-17.494v-200c0-7.27 3.946-13.968 10.304-17.494 6.264-3.472 14.036-3.378 20.294 0.534l160 100c5.848 3.654 9.4 10.064 9.4 16.96s-3.552 13.306-9.4 16.96zM1004 108h-714.532c-8.904 34.466-40.26 60-77.468 60s-68.564-25.534-77.468-60h-114.532c-11.046 0-20-8.954-20-20s8.954-20 20-20h114.532c8.904-34.466 40.26-60 77.468-60s68.564 25.534 77.468 60h714.532c11.046 0 20 8.954 20 20s-8.954 20-20 20zM212 48c-22.056 0-40 17.944-40 40s17.944 40 40 40 40-17.944 40-40-17.944-40-40-40z" />
<glyph unicode="&#xe920;" glyph-name="image-gallery" d="M744.661-64c-7.168 0-14.507 0.896-21.76 2.816l-659.755 176.683c-45.227 12.459-72.192 59.307-60.331 104.533l83.243 310.272c3.072 11.392 14.763 18.005 26.112 15.104 11.392-3.029 18.133-14.763 15.104-26.112l-83.2-310.187c-5.931-22.613 7.637-46.165 30.293-52.437l659.499-176.597c22.656-5.973 46.037 7.509 51.925 30.037l33.323 123.477c3.072 11.392 14.763 18.176 26.155 15.061 11.392-3.072 18.091-14.805 15.061-26.155l-33.28-123.307c-10.027-37.973-44.587-63.189-82.389-63.189zM938.667 192h-682.667c-47.061 0-85.333 38.272-85.333 85.333v512c0 47.061 38.272 85.333 85.333 85.333h682.667c47.061 0 85.333-38.272 85.333-85.333v-512c0-47.061-38.272-85.333-85.333-85.333zM256 832c-23.509 0-42.667-19.157-42.667-42.667v-512c0-23.509 19.157-42.667 42.667-42.667h682.667c23.509 0 42.667 19.157 42.667 42.667v512c0 23.509-19.157 42.667-42.667 42.667zM384 576c-47.061 0-85.333 38.272-85.333 85.333s38.272 85.333 85.333 85.333 85.333-38.272 85.333-85.333-38.272-85.333-85.333-85.333zM384 704c-23.509 0-42.667-19.157-42.667-42.667s19.157-42.667 42.667-42.667 42.667 19.157 42.667 42.667-19.157 42.667-42.667 42.667zM194.987 237.653c-5.461 0-10.923 2.091-15.104 6.229-8.32 8.32-8.32 21.845 0 30.165l201.515 201.515c24.149 24.149 66.347 24.149 90.496 0l59.989-59.989 166.059 199.253c12.075 14.464 29.824 22.869 48.725 23.040h0.469c18.688 0 36.395-8.107 48.597-22.315l223.147-260.352c7.68-8.917 6.656-22.4-2.304-30.080-8.917-7.68-22.357-6.699-30.080 2.304l-223.147 260.352c-4.139 4.779-9.856 7.424-16.213 7.424-4.437 0.384-12.245-2.688-16.384-7.68l-181.035-217.216c-3.84-4.608-9.429-7.381-15.445-7.637-6.059-0.427-11.819 1.963-16.043 6.229l-76.501 76.501c-8.064 8.021-22.101 8.021-30.165 0l-201.515-201.515c-4.139-4.139-9.6-6.229-15.061-6.229z" />
<glyph unicode="&#xe921;" glyph-name="camera" d="M901.565 715.13h-106.852l-58.991 89.043c-22.261 33.391-61.217 53.426-101.287 53.426h-244.87c-40.070 0-79.026-20.035-101.287-53.426l-58.991-89.043h-106.852c-67.896 0-122.435-54.539-122.435-122.435v-431.861c0-67.896 54.539-122.435 122.435-122.435h779.13c67.896 0 122.435 54.539 122.435 122.435v431.861c0 67.896-54.539 122.435-122.435 122.435zM512 138.574c-152.487 0-276.035 123.548-276.035 276.035s123.548 274.922 276.035 274.922 276.035-123.548 276.035-276.035c0-151.374-123.548-274.922-276.035-274.922zM885.983 542.609c-1.113 0-2.226 0-4.452 0h-44.522c-20.035 1.113-35.617 17.809-34.504 37.843 1.113 18.922 15.583 33.391 34.504 34.504h44.522c20.035 1.113 36.73-14.47 37.843-34.504s-13.357-36.73-33.391-37.843zM512 567.096c-84.591 0-153.6-69.009-153.6-153.6s69.009-152.487 153.6-152.487 153.6 69.009 153.6 153.6c0 84.591-69.009 152.487-153.6 152.487z" />
<glyph unicode="&#xe922;" glyph-name="expand" d="M864 832h-176c-17.664 0-32-14.336-32-32s14.336-32 32-32h98.752l-233.376-233.376c-12.496-12.496-12.496-32.752 0-45.248 6.256-6.256 14.432-9.376 22.624-9.376s16.368 3.12 22.624 9.376l233.376 233.376v-98.752c0-17.664 14.336-32 32-32s32 14.336 32 32v176c0 17.664-14.336 32-32 32zM864 304c-17.664 0-32-14.336-32-32v-98.752l-233.376 233.376c-12.496 12.496-32.752 12.496-45.248 0s-12.496-32.752 0-45.248l233.376-233.376h-98.752c-17.664 0-32-14.336-32-32s14.336-32 32-32h176c17.664 0 32 14.336 32 32v176c0 17.664-14.336 32-32 32zM237.248 768h98.752c17.664 0 32 14.336 32 32s-14.336 32-32 32h-176c-17.664 0-32-14.336-32-32v-176c0-17.664 14.336-32 32-32s32 14.336 32 32v98.752l233.376-233.376c6.256-6.256 14.432-9.376 22.624-9.376s16.368 3.12 22.624 9.376c12.496 12.496 12.496 32.752 0 45.248zM425.376 406.624l-233.376-233.376v98.752c0 17.664-14.336 32-32 32s-32-14.336-32-32v-176c0-17.664 14.336-32 32-32h176c17.664 0 32 14.336 32 32s-14.336 32-32 32h-98.752l233.376 233.376c12.496 12.496 12.496 32.752 0 45.248s-32.752 12.496-45.248 0z" />
<glyph unicode="&#xe923;" glyph-name="angle-up" d="M14 182q13-13 32.5-13t32.5 13l433 433 433-433q13-13 32.5-13t32.5 13q14 14 14 33.5t-14 32.5l-465 466q-7 6-15.5 9.5t-17.5 3.5-17.5-3.5-15.5-9.5l-465-466q-14-13-14-32.5t14-33.5v0z" />
<glyph unicode="&#xe924;" glyph-name="google-outline" d="M512 875q-88 0-166-34t-135.5-91.5-91.5-135.5-34-166 34-166 91.5-135.5 135.5-91.5 166-34 166 34 135.5 91.5 91.5 135.5 34 166q0 15-1.5 29.5t-3.5 28.5q-1 11-10 19t-21 8h-380q-14 0-23-9t-9-23v0-128q0-13 9-22.5t23-9.5h195q-30-56-84-92t-122-36q-49 0-92 19-42 18-74 50t-50 74q-19 43-19 92t19 92q18 42 50 74t74 50q43 19 92 19 45 0 84.5-16t70.5-43q4-4 9.5-6t11.5-2q7 0 12.5 2.5t10.5 6.5l90 91q5 4 7.5 10t2.5 12q0 7-3 13t-8 11v0q-56 52-130.5 82.5t-157.5 30.5v0zM512 811q62 0 117.5-20.5t100.5-55.5l-47-47q-37 26-80 42.5t-91 16.5q-78 0-143-37t-105-97l-52 39q25 36 57 65 32 30 70.5 50.5t82.5 31.5q43 12 90 12zM181 595l53-40q-10-25-15.5-52t-5.5-55 5.5-55 15.5-52l-53-40q-15 33-23.5 70.5t-8.5 76.5 8.5 76.5 23.5 70.5v0zM555 469h318q0-5 1-10.5t1-10.5q0-68-24-128t-65-108l-50 44q20 24 37 50.5t26 57.5q0 2 0.5 4.5t0.5 4.5q0 14-9.5 23t-22.5 9h-213v64zM264 283q40-60 105-97t143-37q50 0 96 16t83 45l49-42q-47-38-105-60.5t-123-22.5q-47 0-90 12-44 11-82.5 31.5t-70.5 50.5q-32 29-57 65l51 39h1z" />
<glyph unicode="&#xe925;" glyph-name="play" d="M217.828 937.422c-92.319 52.956-167.166 9.574-167.166-96.819v-785.131c0-106.499 74.847-149.825 167.166-96.919l686.243 393.556c92.351 52.974 92.351 138.801 0 191.763l-686.243 393.55z" />
<glyph unicode="&#xe926;" glyph-name="alert-success" d="M511.999 960c-282.769 0-511.999-229.23-511.999-511.999s229.23-511.999 511.999-511.999 511.999 229.23 511.999 511.999c-0.3 282.643-229.354 511.697-511.999 511.999zM511.999 9.144c-242.374 0-438.857 196.483-438.857 438.857s196.483 438.857 438.857 438.857 438.857-196.483 438.857-438.857c-0.261-242.267-196.59-438.595-438.857-438.857zM792.955 656.713c-14.173 13.689-36.641 13.689-50.811 0v0l-339.859-339.857-120.431 120.431c-14.031 14.529-37.185 14.929-51.711 0.898-14.529-14.031-14.929-37.185-0.898-51.711 0.294-0.304 0.594-0.604 0.898-0.898l146.286-146.286c14.28-14.278 37.431-14.278 51.711 0l365.715 365.715c14.031 14.526 13.629 37.678-0.9 51.709z" />
<glyph unicode="&#xe927;" glyph-name="alert-danger" d="M874.020 810.020c-96.754 96.754-225.185 149.98-362.020 149.98s-265.266-53.226-362.020-149.98-149.98-225.185-149.98-362.020 53.226-265.266 149.98-362.020 225.185-149.98 362.020-149.98 265.266 53.226 362.020 149.98 149.98 225.185 149.98 362.020-53.226 265.266-149.98 362.020zM832.862 127.138c-85.764-85.764-199.758-132.956-320.862-132.956s-235.098 47.192-320.862 132.956c-176.916 176.916-176.916 464.808 0 641.724 85.764 85.764 199.758 132.956 320.862 132.956s235.098-47.192 320.862-132.956c176.916-176.916 176.916-464.808 0-641.724zM737.616 673.616c-11.421 11.421-29.737 11.421-41.158 0l-184.458-184.458-184.458 184.458c-11.421 11.421-29.737 11.421-41.158 0s-11.421-29.737 0-41.158l184.458-184.458-184.458-184.458c-11.421-11.421-11.421-29.737 0-41.158 5.603-5.603 13.145-8.62 20.471-8.62s14.869 2.801 20.471 8.62l184.458 184.458 184.458-184.458c5.603-5.603 13.145-8.62 20.471-8.62 7.542 0 14.869 2.801 20.471 8.62 11.421 11.421 11.421 29.737 0 41.158l-184.027 184.458 184.458 184.458c11.421 11.421 11.421 29.737 0 41.158z" />
<glyph unicode="&#xe928;" glyph-name="chevron-down" d="M545-4l465 466q14 13 14 32.5t-14 32.5q-13 14-32.5 14t-32.5-14l-433-432-433 432q-13 14-32.5 14t-32.5-14q-7-6-10.5-15t-3.5-17q0-9 3.5-18t10.5-15l465-466q7-6 15.5-9.5t17.5-3.5 17.5 3.5 15.5 9.5v0zM512 355q9 0 17.5 3.5t15.5 10.5l465 465q14 14 14 33t-14 33q-13 13-32.5 13t-32.5-13l-433-433-433 433q-13 13-32.5 13t-32.5-13q-7-7-10.5-15.5t-3.5-17.5 3.5-17.5 10.5-15.5l465-465q7-7 15.5-10.5t17.5-3.5v0z" />
<glyph unicode="&#xe929;" glyph-name="chevron-left" d="M60 415l466-465q13-14 32.5-14t32.5 14q14 13 14 32.5t-14 32.5l-432 433 432 433q14 13 14 32.5t-14 32.5q-6 7-15 10.5t-17 3.5q-9 0-18-3.5t-15-10.5l-466-465q-6-7-9.5-15.5t-3.5-17.5 3.5-17.5 9.5-15.5v0zM419 448q0-9 3.5-17.5t10.5-15.5l465-465q14-14 33-14t33 14q13 13 13 32.5t-13 32.5l-433 433 433 433q13 13 13 32.5t-13 32.5q-7 7-15.5 10.5t-17.5 3.5-17.5-3.5-15.5-10.5l-465-465q-7-7-10.5-15.5t-3.5-17.5v0z" />
<glyph unicode="&#xe92a;" glyph-name="chevron-right" d="M964 481l-466 465q-13 14-32.5 14t-32.5-14q-14-13-14-32.5t14-32.5l432-433-432-433q-14-13-14-32.5t14-32.5q6-7 15-10.5t17-3.5q9 0 18 3.5t15 10.5l466 465q6 7 9.5 15.5t3.5 17.5-3.5 17.5-9.5 15.5v0zM605 448q0 9-3.5 17.5t-10.5 15.5l-465 465q-14 14-33 14t-33-14q-13-13-13-32.5t13-32.5l433-433-433-433q-13-13-13-32.5t13-32.5q7-7 15.5-10.5t17.5-3.5 17.5 3.5 15.5 10.5l465 465q7 7 10.5 15.5t3.5 17.5v0z" />
<glyph unicode="&#xe92b;" glyph-name="chevron-up" d="M479 900l-465-466q-14-13-14-32.5t14-32.5q13-14 32.5-14t32.5 14l433 432 433-432q13-14 32.5-14t32.5 14q7 6 10.5 15t3.5 17q0 9-3.5 18t-10.5 15l-465 466q-7 6-15.5 9.5t-17.5 3.5-17.5-3.5-15.5-9.5v0zM512 541q-9 0-17.5-3.5t-15.5-10.5l-465-465q-14-14-14-33t14-33q13-13 32.5-13t32.5 13l433 433 433-433q13-13 32.5-13t32.5 13q7 7 10.5 15.5t3.5 17.5-3.5 17.5-10.5 15.5l-465 465q-7 7-15.5 10.5t-17.5 3.5v0z" />
<glyph unicode="&#xe92c;" glyph-name="google-plus-outline" d="M512 875q-88 0-166-34-78-33-136-91t-91-136q-34-78-34-166t34-166q33-78 91-136t136-91q78-34 166-34t166 34q78 33 136 91t91 136q34 78 34 166t-34 166q-33 78-91 136t-136 91q-78 34-166 34v0zM512 811q75 0 141-29 66-28 115.5-77.5t77.5-115.5q29-66 29-141t-29-141q-28-66-77.5-115.5t-115.5-77.5q-66-29-141-29t-141 29q-66 28-115.5 77.5t-77.5 115.5q-29 66-29 141t29 141q28 66 77.5 115.5t115.5 77.5q66 29 141 29v0zM395 629q-76 0-129.5-54t-52.5-130q1-72 53.5-124.5t125.5-53.5q68-1 119.5 42.5t62.5 108.5q4 25-12.5 43.5t-40.5 18.5h-105q-14 0-23-9.5t-9-22.5 9-22.5 23-9.5v0 0h90q-11-37-41.5-61.5t-71.5-23.5q-46 0-80.5 34.5t-35.5 80.5q0 50 34 84.5t84 34.5q18 0 35-5t31-15q4-3 8.5-4.5t10.5-1.5q13 0 22.5 9.5t9.5 22.5q0 8-4 15t-11 12v0q-22 15-48 23t-54 8v0zM714 544q-13 0-22-9t-9-23v0 0 0-32h-33q-13 0-22.5-9.5t-9.5-22.5 9.5-22.5 22.5-9.5h33v-32q0-14 9-23t23-9q13 0 22.5 9t9.5 23v0 0 0 32h32q13 0 22.5 9.5t9.5 22.5-9.5 22.5-22.5 9.5v0 0h-32v32q0 14-9.5 23t-22.5 9h-1z" />
<glyph unicode="&#xe92d;" glyph-name="download" d="M1020.429 387.274l-134.549 288.15c-3.945 8.068-12.498 12.82-21.432 11.906h-114.307c-13.153 0-23.814-10.661-23.814-23.814s10.661-23.814 23.814-23.814h98.827l110.735-238.14h-135.739c-61.544 0.303-117.516-35.61-142.884-91.685-18.374-38.569-57.298-63.126-100.019-63.107h-138.121c-42.721-0.018-81.643 24.539-100.019 63.107-25.368 56.074-81.34 91.988-142.884 91.685h-133.358l130.976 238.14h76.205c13.153 0 23.814 10.661 23.814 23.814s-10.661 23.814-23.814 23.814h-90.493c-8.606 0.816-16.922-3.343-21.432-10.716l-157.172-288.15c-2.755-2.443-4.462-5.855-4.763-9.527v-296.484c1.896-66.736 55.892-120.207 122.641-121.452h778.717c66.752 1.244 120.745 54.716 122.641 121.452v296.484c-0.454 3.040-1.684 5.912-3.571 8.337zM976.372 82.455c-1.851-40.438-34.551-72.62-75.013-73.824h-778.717c-40.463 1.203-73.163 33.384-75.013 73.824v271.478h152.408c42.721 0.018 81.643-24.539 100.019-63.107 25.368-56.074 81.34-91.988 142.884-91.685h138.121c61.544-0.303 117.516 35.61 142.884 91.685 18.374 38.569 57.298 63.126 100.019 63.107h152.408v-271.478zM495.331 383.703c8.446-9.207 22.759-9.823 31.964-1.374 0.479 0.438 0.937 0.898 1.374 1.374l161.935 163.127c7.89 10.522 5.759 25.448-4.763 33.341-8.467 6.349-20.111 6.349-28.577 0l-121.452-121.452v452.464c0 13.153-10.661 23.814-23.814 23.814s-23.814-10.661-23.814-23.814v-452.466l-121.452 121.452c-10.522 7.89-25.448 5.759-33.341-4.763-6.349-8.467-6.349-20.111 0-28.577l161.939-163.124z" />
<glyph unicode="&#xe92e;" glyph-name="linkedin1" d="M35.626 637.226h225.142v-701.226h-225.142zM148.198 960c-70.688 0-128.198-57.51-128.198-128.198 0-70.69 57.51-128.2 128.198-128.2 70.69 0 128.2 57.51 128.2 128.2-0.002 70.688-57.512 128.198-128.2 128.198zM1003.93 425.516c-2.972 130.69-109.954 233.062-243.55 233.062-73.966 0-142.652-32.778-188.722-88.892v67.542h-214.060v-701.228h225.144v405.334c0 54.004 43.936 97.94 97.94 97.94 54.002 0 97.938-43.93 97.938-97.944l0.24-405.33h225.14z" />
<glyph unicode="&#xe92f;" glyph-name="user" d="M512 960c-148.878 0-270-121.122-270-270s121.122-270 270-270 270 121.122 270 270-121.122 270-270 270zM512 480c-115.794 0-210 94.206-210 210s94.206 210 210 210c115.794 0 210-94.206 210-210s-94.206-210-210-210zM847.932 243.61c-73.92 75.056-171.914 116.39-275.932 116.39h-120c-104.016 0-202.012-41.334-275.932-116.39-73.558-74.688-114.068-173.276-114.068-277.61 0-16.568 13.432-30 30-30h840c16.568 0 30 13.432 30 30 0 104.334-40.51 202.922-114.068 277.61zM123.32-4c15.030 170.172 156.702 304 328.68 304h120c171.978 0 313.65-133.828 328.68-304h-777.36z" />
<glyph unicode="&#xe930;" glyph-name="linkedin-outline" d="M245 832q-48 0-82.5-34.5t-34.5-82.5v-534q0-48 34.5-82.5t82.5-34.5h534q48 0 82.5 34.5t34.5 82.5v534q0 48-34.5 82.5t-82.5 34.5h-534zM245 768h534q22 0 37.5-15.5t15.5-37.5v-534q0-22-15.5-37.5t-37.5-15.5h-534q-22 0-37.5 15.5t-15.5 37.5v534q0 22 15.5 37.5t37.5 15.5v0zM331 683q-22 0-38-16t-16-38 16-37.5 38-15.5v0q22 0 37.5 15.5t15.5 37.5-15.5 38-37.5 16v0 0zM299 533q-9 0-15.5-6t-6.5-15v-277q0-9 6.5-15.5t15.5-6.5h64q9 0 15 6.5t6 15.5v277q0 9-6 15t-15 6h-64zM448 533q-9 0-15-6t-6-15v-277q0-9 6-15.5t15-6.5h64q9 0 15 6.5t6 15.5v160q0 22 16 37.5t38 15.5 37.5-15.5 15.5-37.5v-160q0-9 6-15.5t15-6.5h64q9 0 15.5 6.5t6.5 15.5v170q0 53-37.5 90.5t-90.5 37.5q-25 0-47-8.5t-39-24.5v12q0 9-6 15t-15 6h-64z" />
<glyph unicode="&#xe931;" glyph-name="edit" d="M992 835l-93 93q-31 32-76.5 32t-76.5-32l-571-571q-105-104-120-119-3-3-5-7.5t-3-8.5l-46-251q-2-7 0.5-14t7.5-12 12-7.5 14-0.5l251 46q4 1 8.5 3t7.5 5l690 691q32 31 32 76.5t-32 76.5zM67 3l29 152 123-123-152-29zM281 55l-162 162 590 590 162-162-590-590zM950 724l-37-36-161 161 36 37q14 14 34.5 14t34.5-14l93-93q14-14 14-34.5t-14-34.5v0z" />
<glyph unicode="&#xe932;" glyph-name="logout" d="M494.656-5.324h-267.083c-72.584 0-131.477 59.11-131.477 131.477v643.694c0 72.584 59.11 131.477 131.477 131.477h271.43c16.299 0 29.338 13.039 29.338 29.338s-13.039 29.338-29.338 29.338h-271.43c-104.964 0-190.153-85.406-190.153-190.153v-643.694c0-104.964 85.406-190.153 190.153-190.153h267.083c16.299 0 29.338 13.039 29.338 29.338s-13.256 29.338-29.338 29.338zM977.97 468.645l-186.458 186.458c-11.518 11.518-29.99 11.518-41.508 0s-11.518-29.99 0-41.508l136.475-136.475h-595.233c-16.299 0-29.338-13.039-29.338-29.338s13.039-29.338 29.338-29.338h595.233l-136.475-136.475c-11.518-11.518-11.518-29.99 0-41.508 5.65-5.65 13.256-8.693 20.645-8.693s14.995 2.825 20.645 8.693l186.458 186.458c11.735 11.735 11.735 30.424 0.217 41.725z" />
<glyph unicode="&#xe933;" glyph-name="account" d="M504.702 466.735c67.765 0 126.437 24.305 174.39 72.258 47.937 47.945 72.25 106.609 72.25 174.382 0 67.75-24.305 126.422-72.258 174.382-47.953 47.937-106.625 72.242-174.382 72.242-67.773 0-126.437-24.305-174.382-72.25s-72.258-106.617-72.258-174.375c0-67.773 24.312-126.445 72.258-174.39 47.961-47.937 106.633-72.25 174.382-72.25zM372.757 845.321c36.789 36.789 79.945 54.672 131.945 54.672 51.992 0 95.156-17.883 131.953-54.672 36.789-36.797 54.68-79.961 54.68-131.945 0-52-17.891-95.156-54.68-131.953-36.797-36.797-79.961-54.68-131.953-54.68-51.984 0-95.14 17.891-131.945 54.68-36.797 36.789-54.687 79.953-54.687 131.953 0 51.984 17.891 95.148 54.687 131.945zM936.256 172.595c-1.383 19.953-4.18 41.719-8.297 64.703-4.156 23.156-9.508 45.047-15.914 65.055-6.625 20.68-15.617 41.101-26.75 60.672-11.539 20.312-25.102 38-40.32 52.555-15.914 15.227-35.398 27.469-57.93 36.398-22.453 8.883-47.336 13.383-73.953 13.383-10.453 0-20.562-4.289-40.086-17-12.016-7.836-26.070-16.898-41.758-26.922-13.414-8.547-31.586-16.555-54.031-23.805-21.898-7.086-44.133-10.68-66.086-10.68-21.937 0-44.172 3.594-66.086 10.68-22.422 7.242-40.601 15.25-53.992 23.797-15.539 9.93-29.602 18.992-41.797 26.937-19.508 12.711-29.617 17-40.070 17-26.625 0-51.5-4.508-73.945-13.398-22.516-8.914-42.008-21.156-57.937-36.398-15.219-14.562-28.781-32.242-40.312-52.547-11.117-19.57-20.117-39.984-26.742-60.68-6.398-20.008-11.75-41.891-15.906-65.047-4.125-22.953-6.914-44.726-8.297-64.726-1.359-19.555-2.047-39.906-2.047-60.469 0-53.453 16.992-96.726 50.5-128.64 33.094-31.492 76.875-47.461 130.133-47.461h493.062c53.242 0 97.023 15.969 130.125 47.461 33.516 31.891 50.508 75.18 50.508 128.648-0.008 20.633-0.703 40.984-2.070 60.484zM846.444 26.939c-21.867-20.812-50.898-30.93-88.758-30.93h-493.054c-37.867 0-66.898 10.117-88.758 30.922-21.445 20.414-31.867 48.281-31.867 85.172 0 19.187 0.633 38.133 1.898 56.32 1.234 17.844 3.758 37.445 7.5 58.273 3.695 20.57 8.398 39.875 13.992 57.351 5.367 16.758 12.687 33.351 21.766 49.336 8.664 15.234 18.633 28.305 29.633 38.836 10.289 9.852 23.258 17.914 38.539 23.961 14.133 5.594 30.016 8.656 47.258 9.117 2.102-1.117 5.844-3.25 11.906-7.203 12.336-8.039 26.555-17.211 42.273-27.25 17.719-11.297 40.547-21.5 67.82-30.305 27.883-9.016 56.32-13.594 84.547-13.594s56.672 4.578 84.539 13.586c27.297 8.82 50.117 19.016 67.859 30.328 16.086 10.281 29.906 19.187 42.242 27.234 6.062 3.945 9.805 6.086 11.906 7.203 17.25-0.461 33.133-3.523 47.273-9.117 15.273-6.047 28.242-14.117 38.531-23.961 11-10.523 20.969-23.594 29.633-38.844 9.086-15.977 16.414-32.578 21.773-49.32 5.602-17.5 10.312-36.797 14-57.351 3.734-20.867 6.266-40.476 7.5-58.289v-0.016c1.273-18.117 1.914-37.055 1.922-56.297-0.008-36.898-10.43-64.758-31.875-85.164z" />
<glyph unicode="&#xe934;" glyph-name="orders" d="M811.863 825.837h-92.64v41.444c0 13.409-14.627 19.503-28.035 19.503h-71.917c-17.065 48.758-59.729 73.137-108.487 73.137-48.222 1.813-92.083-27.755-108.487-73.137h-70.699c-13.409 0-26.817-6.094-26.817-19.503v-41.444h-92.643c-54.899-0.586-99.812-43.894-102.393-98.734v-698.46c0-53.635 48.758-92.64 102.393-92.64h599.725c53.635 0 102.393 39.006 102.393 92.64v698.457c-2.58 54.843-47.494 98.151-102.393 98.737zM353.536 838.025h67.043c11.703 1.428 21.103 10.331 23.161 21.941 7.219 31.437 34.799 54.003 67.043 54.852 31.946-0.968 59.11-23.605 65.823-54.852 2.186-12.011 12.207-21.029 24.379-21.941h69.481v-97.516h-316.931v97.516zM865.497 28.64c0-26.817-26.817-43.882-53.635-43.882h-599.725c-26.817 0-53.635 17.065-53.635 43.882v698.46c2.487 27.914 25.613 49.465 53.635 49.976h92.64v-62.167c1.288-13.658 13.117-23.875 26.817-23.161h359.59c13.952-0.763 26.152 9.314 28.035 23.161v62.169h92.64c28.019-0.513 51.147-22.062 53.635-49.976v-698.462zM384.009 416.268l-78.014-74.355-32.911 34.132c-9.144 9.638-24.323 10.18-34.132 1.218-9.442-9.893-9.442-25.457 0-35.35l49.976-51.196c4.326-4.844 10.574-7.522 17.065-7.314 6.43 0.091 12.564 2.72 17.065 7.314l95.078 90.202c0.49 0.448 0.959 0.919 1.407 1.407 8.647 9.426 8.017 24.076-1.407 32.722-9.139 9.641-24.318 10.182-34.127 1.22zM767.981 362.633h-280.359c-13.465 0-24.379-10.914-24.379-24.379s10.914-24.379 24.379-24.379h280.359c13.465 0 24.379 10.914 24.379 24.379s-10.914 24.379-24.379 24.379zM767.981 557.666h-280.359c-13.465 0-24.379-10.914-24.379-24.379s10.914-24.379 24.379-24.379h280.359c13.465 0 24.379 10.914 24.379 24.379s-10.914 24.379-24.379 24.379zM384.009 221.235l-78.014-74.355-32.911 34.132c-9.144 9.638-24.323 10.18-34.132 1.218-9.442-9.893-9.442-25.457 0-35.35l49.976-51.196c4.326-4.844 10.574-7.522 17.065-7.314 6.43 0.091 12.564 2.72 17.065 7.314l95.078 90.202c0.49 0.448 0.959 0.919 1.407 1.407 8.647 9.426 8.017 24.076-1.407 32.722-9.139 9.641-24.318 10.182-34.127 1.22zM767.981 167.6h-280.359c-13.465 0-24.379-10.914-24.379-24.379s10.914-24.379 24.379-24.379h280.359c13.465 0 24.379 10.914 24.379 24.379s-10.914 24.379-24.379 24.379zM251.143 445.523h145.054c0.835-0.044 1.671-0.044 2.506 0 12.772 0.693 22.566 11.607 21.873 24.379v131.646c0 13.465-10.914 24.379-24.379 24.379h-145.054c-13.465 0-24.379-10.914-24.379-24.379v-131.646c-0.044-0.835-0.044-1.671 0-2.506 0.693-12.774 11.607-22.566 24.379-21.873zM275.522 577.169h96.296v-82.888h-96.296v82.888z" />
<glyph unicode="&#xe935;" glyph-name="lists" d="M811.863 825.837h-104.831v35.35c-1.79 14.26-13.672 25.112-28.035 25.597h-59.729c-17.065 36.57-59.729 73.137-108.487 73.137-48.222 1.813-92.083-27.755-108.487-73.137h-58.511c-14.111-0.562-25.599-11.53-26.817-25.597v-35.35h-104.829c-53.635 0-102.393-39.006-102.393-92.64v-698.46c2.58-54.841 47.494-98.151 102.393-98.734h599.725c54.899 0.586 99.812 43.894 102.393 98.734v698.46c0 53.632-48.758 92.64-102.393 92.64zM365.726 838.025h54.852c11.106-0.247 20.823 7.424 23.161 18.285 6.899 31.453 34.841 53.807 67.043 53.635 31.54 0.187 58.942-21.635 65.823-52.414 2.352-11.535 12.611-19.741 24.379-19.503h57.291v-97.516h-292.549v97.514zM319.406 716.129c0.616-13.201 11.178-23.763 24.379-24.379h335.211c13.201 0.616 23.763 11.178 24.379 24.379h64.605v-633.855h-511.962v633.855h63.387zM865.497 34.734c-2.487-27.914-25.613-49.465-53.635-49.976h-599.725c-28.019 0.513-51.147 22.062-53.635 49.976v698.462c0 26.817 26.817 43.882 53.635 43.882h104.831v-12.188h-80.452c-13.409 0-29.255-6.094-29.255-19.503v-686.271c2.338-14.452 14.62-25.2 29.255-25.597h550.967c14.634 0.399 26.918 11.145 29.255 25.597v686.269c0 13.409-15.847 19.503-29.255 19.503h-80.452v12.188h104.831c26.817 0 53.635-17.065 53.635-43.882v-698.46zM341.347 423.582h341.308c13.465 0 24.379 10.914 24.379 24.379s-10.914 24.379-24.379 24.379h-341.308c-13.465 0-24.379-10.914-24.379-24.379s10.914-24.379 24.379-24.379zM341.347 545.476h158.463c13.465 0 24.379 10.914 24.379 24.379s-10.914 24.379-24.379 24.379h-158.463c-13.465 0-24.379-10.914-24.379-24.379 0-13.462 10.914-24.379 24.379-24.379zM341.347 301.687h341.308c13.465 0 24.379 10.914 24.379 24.379s-10.914 24.379-24.379 24.379h-341.308c-13.465 0-24.379-10.914-24.379-24.379s10.914-24.379 24.379-24.379zM341.347 179.791h341.308c13.465 0 24.379 10.914 24.379 24.379s-10.914 24.379-24.379 24.379h-341.308c-13.465 0-24.379-10.914-24.379-24.379s10.914-24.379 24.379-24.379z" />
<glyph unicode="&#xe936;" glyph-name="comment" d="M859.518 890.998h-696.035c-72.773 0-131.982-59.197-131.982-131.982v-425.959c0-72.621 58.951-131.725 131.514-131.982v-193.295l277.787 193.295h418.717c72.773 0 131.982 59.209 131.982 131.982v425.959c0 72.785-59.209 131.982-131.982 131.982zM935.25 333.057c0-41.754-33.973-75.732-75.732-75.732h-436.365l-203.889-141.879v141.879h-55.781c-41.76 0-75.732 33.979-75.732 75.732v425.959c0 41.766 33.973 75.732 75.732 75.732h696.035c41.76 0 75.732-33.967 75.732-75.732zM288.439 692.242h446.121v-56.25h-446.121zM288.439 572.242h446.121v-56.25h-446.121zM288.439 452.242h446.121v-56.25h-446.121z" />
<glyph unicode="&#xe937;" glyph-name="city" d="M823.652 470.261c4.826 0 9.5 1.554 13.359 4.457l178.087 133.565c5.609 4.185 8.902 10.793 8.902 17.804s-3.293 13.598-8.902 17.804l-178.087 133.565c-3.859 2.902-8.533 4.457-13.359 4.457h-222.609v155.826c0 12.315-9.946 22.261-22.261 22.261h-133.565c-12.315 0-22.261-9.946-22.261-22.261v-155.826h-222.609c-4.826 0-9.5-1.554-13.359-4.457l-178.087-133.565c-5.609-4.207-8.902-10.815-8.902-17.804s3.293-13.598 8.902-17.804l178.087-133.565c3.859-2.902 8.533-4.457 13.359-4.457h222.609v-311.652h-89.043c-12.315 0-22.261-9.946-22.261-22.261v-155.826h-289.391c-12.315 0-22.261-9.946-22.261-22.261s9.946-22.261 22.261-22.261h979.478c12.315 0 22.261 9.946 22.261 22.261s-9.946 22.261-22.261 22.261h-289.391v155.826c0 12.315-9.946 22.261-22.261 22.261h-89.043v311.652zM467.478 915.478h89.043v-133.565h-89.043zM667.826 114.087v-133.565h-311.652v133.565zM467.478 158.609v311.652h89.043v-311.652zM207.761 514.783l-148.391 111.304 148.391 111.304h608.478l148.391-111.304-148.391-111.304z" />
<glyph unicode="&#xe938;" glyph-name="grid2" d="M42.667 490.667h384c23.552 0 42.667 19.115 42.667 42.667v384c0 23.552-19.115 42.667-42.667 42.667h-384c-23.552 0-42.667-19.115-42.667-42.667v-384c0-23.552 19.115-42.667 42.667-42.667zM981.333 960h-384c-23.552 0-42.667-19.115-42.667-42.667v-384c0-23.552 19.115-42.667 42.667-42.667h384c23.552 0 42.667 19.115 42.667 42.667v384c0 23.552-19.115 42.667-42.667 42.667zM42.667-64h384c23.552 0 42.667 19.115 42.667 42.667v384c0 23.552-19.115 42.667-42.667 42.667h-384c-23.552 0-42.667-19.115-42.667-42.667v-384c0-23.552 19.115-42.667 42.667-42.667zM981.333 405.333h-384c-23.552 0-42.667-19.115-42.667-42.667v-384c0-23.552 19.115-42.667 42.667-42.667h384c23.552 0 42.667 19.115 42.667 42.667v384c0 23.552-19.115 42.667-42.667 42.667z" />
<glyph unicode="&#xe939;" glyph-name="grid3" d="M274.55 960h-237.45c-16.393 0-29.681-13.288-29.681-29.681v-237.45c0-16.393 13.288-29.681 29.681-29.681h237.45c16.393 0 29.681 13.288 29.681 29.681v237.45c0 16.393-13.288 29.681-29.681 29.681zM630.725 960h-237.45c-16.393 0-29.681-13.288-29.681-29.681v-237.45c0-16.393 13.288-29.681 29.681-29.681h237.45c16.393 0 29.681 13.288 29.681 29.681v237.45c0 16.393-13.288 29.681-29.681 29.681zM274.55 603.826h-237.45c-16.393 0-29.681-13.288-29.681-29.681v-237.45c0-16.393 13.288-29.681 29.681-29.681h237.45c16.393 0 29.681 13.288 29.681 29.681v237.45c0 16.393-13.288 29.681-29.681 29.681zM630.725 603.826h-237.45c-16.393 0-29.681-13.288-29.681-29.681v-237.45c0-16.393 13.288-29.681 29.681-29.681h237.45c16.393 0 29.681 13.288 29.681 29.681v237.45c0 16.393-13.288 29.681-29.681 29.681zM986.899 960h-237.45c-16.393 0-29.681-13.288-29.681-29.681v-237.45c0-16.393 13.288-29.681 29.681-29.681h237.45c16.393 0 29.681 13.288 29.681 29.681v237.45c0 16.393-13.291 29.681-29.681 29.681zM986.899 603.826h-237.45c-16.393 0-29.681-13.288-29.681-29.681v-237.45c0-16.393 13.288-29.681 29.681-29.681h237.45c16.393 0 29.681 13.288 29.681 29.681v237.45c0 16.393-13.291 29.681-29.681 29.681zM274.55 232.812h-237.45c-16.393 0-29.681-13.288-29.681-29.681v-237.45c0-16.393 13.288-29.681 29.681-29.681h237.45c16.393 0 29.681 13.288 29.681 29.681v237.45c0 16.393-13.288 29.681-29.681 29.681zM630.725 232.812h-237.45c-16.393 0-29.681-13.288-29.681-29.681v-237.45c0-16.393 13.288-29.681 29.681-29.681h237.45c16.393 0 29.681 13.288 29.681 29.681v237.45c0 16.393-13.288 29.681-29.681 29.681zM986.899 232.812h-237.45c-16.393 0-29.681-13.288-29.681-29.681v-237.45c0-16.393 13.288-29.681 29.681-29.681h237.45c16.393 0 29.681 13.288 29.681 29.681v237.45c0 16.393-13.291 29.681-29.681 29.681z" />
<glyph unicode="&#xe93a;" glyph-name="grid4" d="M269.474 421.051h215.579v-215.579h-215.579v215.579zM269.474 960h215.579v-215.579h-215.579v215.579zM269.474 151.579h215.579v-215.579h-215.579v215.579zM269.474 690.526h215.579v-215.579h-215.579v215.579zM13.472 421.051h202.104v-215.579h-202.104v215.579zM13.472 151.579h202.104v-215.579h-202.104v215.579zM13.472 960h202.104v-215.579h-202.104v215.579zM13.472 690.526h202.104v-215.579h-202.104v215.579zM538.949 421.051h215.579v-215.579h-215.579v215.579zM808.421 690.526h202.104v-215.579h-202.104v215.579zM808.421 421.051h202.104v-215.579h-202.104v215.579zM808.421 960h202.104v-215.579h-202.104v215.579zM538.949 151.579h215.579v-215.579h-215.579v215.579zM538.949 690.526h215.579v-215.579h-215.579v215.579zM538.949 960h215.579v-215.579h-215.579v215.579zM808.421 151.579h202.104v-215.579h-202.104v215.579z" />
<glyph unicode="&#xe93b;" glyph-name="pinterest-outline" d="M512 875q-88 0-166-34-78-33-136-91t-91-136q-34-78-34-166t34-166q33-78 91-136t136-91q78-34 166-34t166 34q78 33 136 91t91 136q34 78 34 166t-34 166q-33 78-91 136t-136 91q-78 34-166 34v0zM512 811q75 0 141-29 66-28 115.5-77.5t77.5-115.5q29-66 29-141t-29-141q-28-66-77.5-115.5t-115.5-77.5q-66-29-141-29-23 0-45 3t-43 9q7 15 12.5 30.5t9.5 31.5l22 87q18-16 42-24.5t55-8.5q42 0 79 20t64.5 54 43.5 80q16 45 16 97 0 51-19 95-20 44-54.5 76t-80.5 51q-47 18-102 18-53 0-100-19-46-19-81-51.5t-55-76.5q-20-43-20-93 0-48 17.5-90t50.5-73q3-3 8.5-1.5t6.5 6.5l12 50q1 3 0 7t-3 8q-11 16-19.5 39t-8.5 54q0 73 56.5 124.5t135.5 51.5q7 0 34-4 28-3 58-20.5t54-54.5q25-36 25-102t-31-124-97-58q-17 1-29 6.5t-19 14.5q-11 16-10.5 38.5t3.5 36.5l17 64q3 13 4.5 24t1.5 20q0 31-16.5 47t-37.5 16q-28 0-46-25t-18-56q0-16 3-33t8-33l-48-201-2.5-12t-2.5-44v-10t1-13q-48 21-87 55-40 33-68 76t-44 94-16 106q0 75 29 141 28 66 77.5 115.5t115.5 77.5q66 29 141 29v0z" />
<glyph unicode="&#xe93c;" d="M310.165 832h45.333l29.227-117.248h2.837l27.904 117.184h45.803l-52.437-171.435v-127.168h-45.056v121.664l-53.611 177.003zM459.2 705.643c0 16.725 5.419 30.101 16.192 39.979 10.752 9.941 25.216 14.933 43.413 14.933 16.597 0 30.144-5.227 40.704-15.723 10.56-10.411 15.851-23.915 15.851-40.405v-111.68c0-18.475-5.163-33.024-15.531-43.605-10.368-10.539-24.576-15.808-42.816-15.808-17.557 0-31.509 5.525-42.112 16.363-10.517 10.837-15.744 25.472-15.744 43.84v112.128h0.043zM500.373 589.483c0-5.867 1.408-10.539 4.373-13.781 2.816-3.2 6.869-4.821 12.181-4.821 5.44 0 9.685 1.643 12.885 4.992 3.179 3.221 4.821 7.808 4.821 13.611v117.803c0.004 0.131 0.007 0.284 0.007 0.438 0 4.366-1.901 8.288-4.92 10.984l-0.014 0.013c-3.221 2.88-7.509 4.373-12.779 4.373-0.188 0.007-0.408 0.012-0.629 0.012-4.373 0-8.357-1.666-11.352-4.397l0.013 0.012c-2.837-2.756-4.597-6.607-4.597-10.869 0-0.199 0.004-0.397 0.011-0.594l-0.001 0.028v-117.803zM723.584 755.093v-221.76h-40v27.008c-7.381-8.832-15.040-15.531-23.061-20.075-7.936-4.587-15.68-6.933-23.168-6.933-9.28 0-16.213 3.179-20.928 9.643-4.715 6.4-7.019 16.021-7.019 28.949v183.168h39.979v-168.235c0-5.035 0.853-8.747 2.56-11.072 1.6-2.219 4.416-3.456 8.107-3.456 3.008 0 6.72 1.515 11.136 4.587 4.544 3.008 8.661 6.912 12.395 11.605v166.571h40z" />
<glyph unicode="&#xe93d;" d="M827.712 395.968c0 49.963-41.387 90.453-92.352 90.453-62.466 2.703-135.748 4.243-209.389 4.243-4.91 0-9.818-0.007-14.725-0.021l0.754 0.002c-3.942 0.011-8.605 0.017-13.269 0.017-73.889 0-147.418-1.539-220.558-4.588l10.467 0.347c-50.923 0-92.309-40.491-92.309-90.453-2.763-34.11-4.338-73.843-4.338-113.944 0-1.657 0.003-3.314 0.008-4.97l-0.001 0.258c-0.107-39.531 1.28-79.083 4.352-118.635 0-50.027 41.344-90.517 92.288-90.517 72.832-2.987 147.349-4.267 223.36-4.16 76.032-0.171 150.571 1.195 223.36 4.16 50.965 0 92.352 40.491 92.352 90.517 3.029 39.552 4.459 79.104 4.288 118.635 0.009 1.881 0.014 4.106 0.014 6.332 0 39.532-1.562 78.699-4.627 117.443l0.326-5.119z" />
<glyph unicode="&#xe93e;" d="M722.155 312.619c-4.672 0-7.851-1.237-9.771-3.84-1.365-1.941-3.093-6.379-3.093-16.043v-16.512h25.451v16.512c0 9.515-1.771 13.973-3.221 16.149-1.813 2.539-4.885 3.733-9.365 3.733zM573.12 311.765c-2.125-1.109-3.942-2.483-5.497-4.11l-0.007-0.008v-125.355c2.347-2.368 4.629-4.075 6.741-5.163 2.11-1.077 4.602-1.707 7.242-1.707 0.049 0 0.098 0 0.147 0.001h-0.007c4.928 0 6.464 1.941 6.955 2.624 1.216 1.515 2.539 4.672 2.539 11.52v106.773c0 5.931-1.131 10.517-3.243 13.333-2.859 3.797-8.491 5.291-14.869 2.091z" />
<glyph unicode="&#xe93f;" d="M466.795 829.099l-92.053 20.779c-9.227 2.177-19.82 3.425-30.706 3.425-66.094 0-121.442-46.007-135.766-107.743l-0.184-0.94-20.971-92.821c60.416 95.936 161.835 163.392 279.68 177.301zM130.901 402.795l-20.779-92.053c-2.177-9.227-3.425-19.82-3.425-30.706 0-66.094 46.007-121.442 107.743-135.766l0.94-0.184 92.821-20.971c-95.936 60.437-163.392 161.835-177.301 279.68zM808.619 751.915l-92.821 20.971c95.936-60.416 163.392-161.835 177.301-279.659l20.779 92.053c2.174 9.221 3.42 19.807 3.42 30.685 0 66.092-46.005 121.439-107.738 135.765l-0.94 0.184zM557.205 66.901l92.053-20.779c9.227-2.177 19.82-3.425 30.706-3.425 66.094 0 121.442 46.007 135.766 107.743l0.184 0.94 20.971 92.821c-60.416-95.936-161.835-163.392-279.68-177.301z" />
<glyph unicode="&#xe940;" d="M512 789.333c-188.523 0-341.333-152.811-341.333-341.333s152.811-341.333 341.333-341.333 341.333 152.811 341.333 341.333-152.811 341.333-341.333 341.333zM426.667 682.667c47.128 0 85.333-38.205 85.333-85.333s-38.205-85.333-85.333-85.333v0c-47.128 0-85.333 38.205-85.333 85.333s38.205 85.333 85.333 85.333v0zM362.667 277.333c-47.128 0-85.333 38.205-85.333 85.333s38.205 85.333 85.333 85.333v0c47.128 0 85.333-38.205 85.333-85.333s-38.205-85.333-85.333-85.333v0zM469.333 448c-0.007 0.287-0.011 0.625-0.011 0.965 0 23.564 19.103 42.667 42.667 42.667s42.667-19.103 42.667-42.667c0-0.332-0.004-0.662-0.011-0.992l0.001 0.049c-0.528-23.155-19.424-41.723-42.656-41.723-23.225 0-42.116 18.557-42.655 41.652l-0.001 0.050zM597.333 213.333c-47.128 0-85.333 38.205-85.333 85.333s38.205 85.333 85.333 85.333v0c47.128 0 85.333-38.205 85.333-85.333s-38.205-85.333-85.333-85.333v0zM661.333 448c-47.128 0-85.333 38.205-85.333 85.333s38.205 85.333 85.333 85.333v0c47.128 0 85.333-38.205 85.333-85.333s-38.205-85.333-85.333-85.333v0z" />
<glyph unicode="&#xe941;" d="M827.712 395.968c0 49.963-41.387 90.453-92.352 90.453-62.466 2.703-135.748 4.243-209.389 4.243-4.91 0-9.818-0.007-14.725-0.021l0.754 0.002c-3.942 0.011-8.605 0.017-13.269 0.017-73.889 0-147.418-1.539-220.558-4.588l10.467 0.347c-50.923 0-92.309-40.491-92.309-90.453-2.763-34.11-4.338-73.843-4.338-113.944 0-1.657 0.003-3.314 0.008-4.97l-0.001 0.258c-0.107-39.531 1.28-79.083 4.352-118.635 0-50.027 41.344-90.517 92.288-90.517 72.832-2.987 147.349-4.267 223.36-4.16 76.032-0.171 150.571 1.195 223.36 4.16 50.965 0 92.352 40.491 92.352 90.517 3.029 39.552 4.459 79.104 4.288 118.635 0.009 1.881 0.014 4.106 0.014 6.332 0 39.532-1.562 78.699-4.627 117.443l0.326-5.119zM334.955 141.184c-0.024-2.409-1.982-4.352-4.394-4.352 0 0 0 0 0 0h-43.712c0 0 0 0 0 0-2.412 0-4.37 1.943-4.394 4.35v235.309h-40.832c0 0 0 0 0 0-2.4 0-4.349 1.934-4.373 4.328v40.621c0 2.389 1.963 4.352 4.373 4.352h134.208c2.432 0 4.395-1.963 4.395-4.352v-40.619c-0.012-2.394-1.956-4.331-4.352-4.331-0.015 0-0.030 0-0.045 0h-40.873v-235.307zM490.56 141.184c-0.024-2.409-1.982-4.352-4.394-4.352 0 0 0 0 0 0h-38.869c0 0 0 0 0 0-2.412 0-4.37 1.943-4.394 4.35v11.757c-4.598-4.509-9.763-8.465-15.373-11.746l-0.371-0.201c-8.469-4.843-16.555-7.168-24.747-7.168-10.411 0-18.432 3.755-23.829 11.029-5.077 6.912-7.701 17.131-7.701 30.315v172.8c0 2.389 1.963 4.352 4.416 4.352h38.848c2.432 0 4.395-1.963 4.395-4.352v-158.464c0-5.205 0.939-7.317 1.536-8.149 0.277-0.363 1.067-1.429 4.373-1.429 1.109 0 3.669 0.469 8.299 3.605 3.755 2.453 7.125 5.525 10.091 9.067v155.371c0 2.389 1.963 4.352 4.416 4.352h38.848c2.432 0 4.395-1.963 4.395-4.352v-206.763h0.064zM640 184.043c0-15.701-3.392-27.947-10.091-36.437-6.955-8.917-17.003-13.355-29.824-13.355-8.171 0-15.637 1.643-22.315 4.971-3.895 1.984-7.252 4.291-10.267 6.975l0.048-0.042v-4.971c-0.012-2.406-1.965-4.352-4.373-4.352-0.008 0-0.015 0-0.023 0h-39.188c-0.013 0-0.028 0-0.043 0-2.408 0-4.361 1.946-4.373 4.351v280.321c0 2.389 1.963 4.331 4.416 4.331h39.189c2.411 0 4.395-1.941 4.395-4.331v-79.296c3.2 2.901 6.613 5.333 10.112 7.317 5.767 3.357 12.676 5.373 20.049 5.461h0.026c13.675 0 24.384-5.077 31.659-15.061 6.997-9.6 10.56-23.488 10.56-41.237l0.043-114.645zM783.552 239.68c-0.012-2.418-1.975-4.373-4.395-4.373-0.008 0-0.015 0-0.023 0h-69.823v-34.581c0-12.629 1.749-18.027 3.157-20.288 1.131-1.877 3.243-4.245 9.344-4.245 4.907 0 8.277 1.173 10.005 3.499 0.789 1.237 2.965 5.973 2.965 21.077v14.4c0 2.432 1.984 4.352 4.416 4.352h39.936c2.432 0 4.373-1.92 4.373-4.352v-15.552c0-22.272-5.312-39.339-15.723-50.859-10.453-11.584-26.24-17.493-46.891-17.493-18.603 0-33.579 6.315-44.352 18.581-10.667 12.181-16.107 28.885-16.107 49.771v92.843c0 19.029 5.931 34.773 17.707 46.848 11.733 12.117 27.179 18.283 45.739 18.283 18.987 0 33.856-5.781 44.203-17.131 10.24-11.221 15.445-27.392 15.445-48.021v-52.779h0.021z" />
<glyph unicode="&#xe942;" glyph-name="youtube-outline" d="M262 875q-3 0-5-2.5t-1-5.5l57-206v-92q0-4 3-7.5t8-3.5h30q4 0 7 3.5t3 7.5v92l58 206q1 3-1 5.5t-5 2.5h-35q-3 0-6-2.5t-4-6.5q-5-23-17.5-82t-13.5-67h-2q-1 11-13.5 68.5l-17.5 80.5q0 4-3 6.5t-7 2.5h-35zM486 794q-13 0-23.5-2.5t-18.5-7.5q-8-6-14-14t-9-19q-4-12-6-27t-2-33v-34q0-18 1.5-33t5.5-26q3-11 8.5-19t13.5-14q8-5 18.5-7.5t24.5-2.5 24.5 2.5 18.5 7.5q7 5 13 13.5t9 19.5q4 11 5.5 26t1.5 33v34q0 18-1.5 33t-5.5 26q-4 12-9.5 20t-13.5 13q-7 6-17.5 8.5t-23.5 2.5v0zM595 789q-5 0-8-3t-3-7v-162q0-16 3-28t8-19q6-8 14.5-11.5t19.5-3.5q17 0 29.5 8t20.5 24h1l3-20q1-3 4-6t7-3h21q4 0 7 3.5t3 7.5v210q0 4-3 7t-7 3h-31q-4 0-7.5-3t-3.5-7v-173q-1-3-3.5-6t-5.5-5-6.5-3-6.5-1q-4 0-7 2t-4 5q-2 3-3 8.5t-1 13.5v159q0 4-3 7t-7 3h-31zM485 758q6 0 9.5-3t5.5-8q3-6 4-15t1-22v-72q0-12-1-21.5t-3-15.5q-3-5-6.5-8t-9.5-3q-5 0-9 3t-6 8q-2 6-3 15.5t-1 21.5v72q0 13 1 22t3 15q2 5 6 8t9 3v0zM245 512q-48 0-82.5-34.5t-34.5-82.5v-256q0-49 34.5-83.5t82.5-34.5h534q48 0 82.5 34.5t34.5 83.5v256q0 48-34.5 82.5t-82.5 34.5h-534zM245 448h534q22 0 37.5-15.5t15.5-37.5v-256q0-23-15.5-38.5t-37.5-15.5h-534q-22 0-37.5 15.5t-15.5 38.5v256q0 22 15.5 37.5t37.5 15.5v0zM267 405q-5 0-8-3t-3-7v-22q0-4 3-7t8-3h32v-213q0-5 3-8t7-3h22q4 0 7 3t3 8v213h32q5 0 8 3t3 7v22q0 4-3 7t-8 3h-106zM523 405q-5 0-8-3t-3-7v-245q0-5 3-8t8-3h17q4 0 7 2.5t4 5.5l2 10h1q3-5 6.5-8.5t8.5-6.5 10.5-4.5 11.5-1.5q10 0 18 5t13 15 7.5 25.5 2.5 36.5v30q0 15-1 27.5t-2 21.5q-2 9-5.5 15.5t-7.5 10.5-10 6-13 2q-6 0-11.5-1.5t-10.5-5.5q-5-3-9-7.5t-7-9.5v0 88q0 4-3.5 7t-7.5 3h-21zM709 331q-16 0-27-5t-18-15q-6-10-9.5-25t-3.5-37v-32q0-21 3-36t10-25q6-10 17-15t26-5q14 0 24 3.5t17 9.5q6 6 10 14.5t4 20.5q0 4-3 7.5t-8 3.5h-16q-4 0-7.5-3.5t-3.5-7.5q0-3-0.5-6.5t-1.5-5.5q-2-3-5.5-5t-8.5-2q-3 0-5.5 1t-4.5 3-3 5.5-1 7.5q-1 5-1 11.5v25.5h60q4 0 7 3t3 8v21q0 15-1 26.5t-3 20.5q-3 8-7 14.5t-10 10.5-14 6-19 2v0zM459 327q-4 0-7.5-3t-3.5-7v-139q-1-3-3-5l-4-4q-3-2-5.5-2.5t-5.5-0.5-5.5 1-3.5 4-2 7.5-1 10.5v127q0 5-3 8t-8 3h-21q-4 0-7-3t-3-8v-129q0-13 2-23t7-16q4-6 11-9t16-3q14 0 24 6.5t17 19.5h1l2-14q1-4 4-6.5t6-2.5h14q4 0 7.5 3t3.5 8v167q0 4-3.5 7t-7.5 3h-21zM708 302q3 0 5.5-1t4.5-3l2.5-5t1.5-8q1-5 1-11.5v-29.5h-31v14q0 9 0.5 16t0.5 11q1 5 2 8t3 5q1 2 3.5 3t6.5 1v0zM573 301q4 0 6.5-1.5t3.5-3.5q2-3 3.5-7t1.5-10q1-6 1.5-14.5t0.5-19.5v-25q0-10-0.5-18t-1.5-14-2.5-10-3.5-6q-2-3-4.5-4t-5.5-1-5.5 0.5-4.5 1.5-4 3-3 4v107q1 4 2.5 7t4.5 6q3 2 5.5 3.5t5.5 1.5v0z" />
<glyph unicode="&#xe943;" d="M930.368 531.563h-34.368v1.771h-384v-170.667h241.131c-35.179-99.349-129.707-170.667-241.131-170.667-141.376 0-256 114.624-256 256s114.624 256 256 256c65.259 0 124.629-24.619 169.835-64.832l120.683 120.683c-76.203 71.019-178.133 114.816-290.517 114.816-235.627 0-426.667-191.040-426.667-426.667s191.040-426.667 426.667-426.667c235.627 0 426.667 191.040 426.667 426.667 0 28.608-2.944 56.533-8.299 83.563z" />
<glyph unicode="&#xe944;" d="M134.528 646.592l140.181-102.805c37.931 93.909 129.792 160.213 237.291 160.213 65.259 0 124.629-24.619 169.835-64.832l120.683 120.683c-76.203 71.019-178.133 114.816-290.517 114.816-163.883 0-306.005-92.523-377.472-228.075z" />
<glyph unicode="&#xe945;" glyph-name="map-road" d="M954 817l-296 79q-4 1-8 0.5t-7-2.5l-1 1-282-121-249 47q-20 3-40.5-2t-36.5-18q-16-14-25-33t-9-40v-588q0-34 22-60.5t56-31.5l275-48q5-1 9 0t8 3l281 119 255-68 12-2t12-1q39 0 66.5 27.5t27.5 66.5v581q0 32-19.5 57.5t-50.5 33.5v0zM47 140v588q0 11 4.5 20.5t12.5 15.5q8 7 18 9.5t21 0.5l231-43v-680l-248 43q-17 3-28 16t-11 30v0zM381 732l248 106v-674l-248-105v673zM977 145q0-11-5-20.5t-13-16.5q-9-7-19.5-9t-21.5 1l-242 64v678l266-71q16-4 25.5-16.5t9.5-28.5v-581z" />
<glyph unicode="&#xe946;" d="M512 21.333c110.208 0 210.347 42.176 286.059 110.763l-132.053 111.744c-42.837-32.448-96.085-51.84-154.005-51.84-110.976 0-205.205 70.763-240.704 169.515l-139.136-107.2c70.613-138.176 214.016-232.981 379.84-232.981z" />
<glyph unicode="&#xe947;" d="M930.368 531.563h-34.368v1.771h-384v-170.667h241.131c-16.896-47.723-47.595-88.875-87.189-118.848 0.021 0.021 0.043 0.021 0.064 0.043l132.053-111.744c-9.344-8.491 140.608 102.549 140.608 315.883 0 28.608-2.944 56.533-8.299 83.563z" />
<glyph unicode="&#xe948;" d="M512 874.667c-235.641 0-426.667-191.025-426.667-426.667s191.025-426.667 426.667-426.667v0c235.641 0 426.667 191.025 426.667 426.667s-191.025 426.667-426.667 426.667v0z" />
<glyph unicode="&#xe949;" glyph-name="menu" d="M32 640h960q13 0 22.5 9.5t9.5 22.5-9.5 22.5-22.5 9.5h-960q-13 0-22.5-9.5t-9.5-22.5 9.5-22.5 22.5-9.5v0zM992 480h-960q-13 0-22.5-9.5t-9.5-22.5 9.5-22.5 22.5-9.5h960q13 0 22.5 9.5t9.5 22.5-9.5 22.5-22.5 9.5zM992 256h-640q-13 0-22.5-9.5t-9.5-22.5 9.5-22.5 22.5-9.5h640q13 0 22.5 9.5t9.5 22.5-9.5 22.5-22.5 9.5z" />
<glyph unicode="&#xe94a;" d="M725.333 554.667h42.667v-170.667h-42.667z" />
<glyph unicode="&#xe94b;" d="M661.333 490.667h170.667v-42.667h-170.667zM593.387 486.4l-1.067 4.267h-186.987v-64h126.080c-10.176-60.523-62.677-106.667-126.080-106.667-70.699 0-128 57.301-128 128s57.301 128 128 128c32 0 61.184-11.819 83.627-31.253l45.888 44.928c-34.133 31.253-79.595 50.325-129.515 50.325-106.048 0-192-85.952-192-192s85.952-192 192-192 192 85.952 192 192c0 13.163-1.408 25.984-3.947 38.4z" />
<glyph unicode="&#xe94c;" d="M896 170.667c0-58.91-47.756-106.667-106.667-106.667v0h-554.667c-58.91 0-106.667 47.756-106.667 106.667v0 554.667c0 58.91 47.756 106.667 106.667 106.667v0h554.667c58.91 0 106.667-47.756 106.667-106.667v0-554.667z" />
<glyph unicode="&#xe94d;" d="M256 554.667h106.667v-362.667h-106.667zM309.013 597.333h-0.597c-31.829 0-52.416 23.723-52.416 53.355 0 30.272 21.227 53.312 53.632 53.312 32.448 0 52.437-23.040 53.035-53.312 0-29.611-20.587-53.355-53.653-53.355zM768 192h-106.667v194.112c0 46.891-26.133 78.891-68.096 78.891-32.021 0-49.344-21.589-57.749-42.453-3.072-7.467-2.155-28.117-2.155-38.549v-192h-106.667v362.667h106.667v-55.808c15.381 23.808 39.467 55.808 101.077 55.808 76.331 0 133.568-48 133.568-155.179l0.021-207.488z" />
<glyph unicode="&#xe94e;" d="M512 874.667c-235.641 0-426.667-191.025-426.667-426.667s191.025-426.667 426.667-426.667v0c235.641 0 426.667 191.025 426.667 426.667s-191.025 426.667-426.667 426.667v0z" />
<glyph unicode="&#xe94f;" d="M417.323 384c0 71.019-11.989 95.616-11.989 123.477 0 63.339 45.461 68.523 64.683 68.523 27.392 0 63.317-18.581 63.317-53.333 0-50.581-42.667-56.981-42.667-56.981v-48.832c0-32.853 7.936-75.52 66.624-75.52 94.165 0 104.043 131.243 104.043 167.189 0 49.685-31.787 152.811-144.789 152.811-150.72 0-175.211-134.677-175.211-170.667 0-15.403 2.816-45.269 5.739-56.896 44.928-11.093 34.453-50.667 22.272-61.76-17.685-16.341-92.011-19.52-92.011 133.056 0 145.323 129.536 220.267 243.243 220.267 108.203 0 226.091-74.709 226.091-218.581 0-128.384-92.309-229.483-189.269-229.483-58.197 0-89.067 47.957-89.067 47.957 0-90.56-73.771-220.331-84.331-239.893 0 0 33.323 167.552 33.323 298.667z" />
<glyph unicode="&#xe950;" d="M512 853.333c-223.859 0-405.333-181.474-405.333-405.333s181.474-405.333 405.333-405.333v0c223.859 0 405.333 181.474 405.333 405.333s-181.474 405.333-405.333 405.333v0z" />
<glyph unicode="&#xe951;" d="M566.869 340.565h104.896l16.469 106.56h-121.387v58.24c0 44.267 14.464 83.52 55.872 83.52h66.539v92.992c-11.691 1.579-36.416 5.035-83.136 5.035-97.557 0-154.752-51.52-154.752-168.896v-70.891h-100.288v-106.56h100.288v-292.885c19.861-2.987 39.979-5.013 60.629-5.013 18.667 0 36.885 1.707 54.869 4.139v293.76z" />
<glyph unicode="&#xe952;" d="M512 874.667c-235.641 0-426.667-191.025-426.667-426.667s191.025-426.667 426.667-426.667v0c235.641 0 426.667 191.025 426.667 426.667s-191.025 426.667-426.667 426.667v0z" />
<glyph unicode="&#xe953;" d="M714.667 490.667c-135.494 0-245.333-109.839-245.333-245.333s109.839-245.333 245.333-245.333v0c135.494 0 245.333 109.839 245.333 245.333s-109.839 245.333-245.333 245.333v0zM309.333 896c-135.494 0-245.333-109.839-245.333-245.333s109.839-245.333 245.333-245.333v0c135.494 0 245.333 109.839 245.333 245.333s-109.839 245.333-245.333 245.333v0z" />
<glyph unicode="&#xe954;" d="M524.843 192c-140.843 0-204.843 70.421-204.843 123.755 0 27.755 19.157 46.912 46.912 46.912 59.755 0 44.843-87.509 157.909-87.509 57.579 0 89.579 32 89.579 64 0 19.243-8.576 40.576-46.912 51.243l-125.909 32c-100.245 25.6-119.403 81.109-119.403 134.443 0 108.757 100.245 147.157 194.091 147.157 87.488 0 187.733-46.912 187.733-110.912 0-27.755-21.333-44.843-49.088-44.843-51.157 0-42.667 72.576-145.088 72.576-51.157 0-81.003-23.509-81.003-57.664 0-34.091 40.491-44.757 76.757-53.333l93.909-21.333c102.336-23.403 125.845-83.157 125.845-140.736-2.176-89.579-66.176-155.755-200.491-155.755z" />
<glyph unicode="&#xe955;" glyph-name="skype-outline" d="M363 853q-53 0-100-20-46-20-81-55t-55-81q-20-47-20-100 0-28 6.5-55t17.5-51q-1-11-2-21.5t-1-21.5q0-79 30-149t82.5-122.5 122.5-82.5 149-30q11 0 21.5 1t21.5 2q24-11 51-17.5t55-6.5q53 0 100 20 46 20 81 55t55 81q20 47 20 100 0 28-6.5 55t-17.5 51q1 11 2 21.5t1 21.5q0 79-30 149t-82.5 122.5-122.5 82.5-149 30q-11 0-21.5-1t-21.5-2q-24 11-51 17.5t-55 6.5v0zM363 789q23 0 45-5.5t42-15.5q3-2 7-3t8-1q1 0 2 0.5t2 0.5v0q11 1 21.5 2t21.5 1q66 0 125-25 58-25 101.5-68.5t68.5-101.5q25-59 25-125 0-11-1-21.5t-2-21.5q0-1-0.5-2t-0.5-2q0-4 1-8t3-7v0q10-20 15.5-42t5.5-45q0-80-56-136t-136-56q-23 0-45 5.5t-42 15.5q-3 2-7 3t-8 1q-1 0-2-0.5t-2-0.5v0q-11-1-21.5-2t-21.5-1q-66 0-125 25-58 25-101.5 68.5t-68.5 101.5q-25 59-25 125 0 11 1 21.5t2 21.5q0 1 0.5 2t0.5 2q0 4-1 8t-3 7v0q-10 20-15.5 42t-5.5 45q0 80 56 136t136 56v0zM527 666q-120 0-143-53.5t-23-70.5q0-47 33-74 34-26 74.5-44t74.5-34q34-17 34-46 0-35-28.5-41.5t-44.5-6.5q-32 0-61.5 15.5t-41.5 15.5-25.5-9-13.5-26q0-41 51-53.5t69-12.5q9 0 38 1 30 1 62 12t58 37q25 25 25 74 0 50-34 78-33 28-73.5 46.5t-73.5 33.5q-34 15-34 40 0 5 8.5 28t64.5 23q41 0 56.5-12t35.5-12q10 0 22 7.5t12 30.5q0 30-45 41.5t-77 11.5v0z" />
<glyph unicode="&#xe956;" d="M104.533 36.267l57.6 209.067c-36.267 61.867-55.467 132.267-55.467 202.667 0 224 181.333 405.333 405.333 405.333 108.8 0 209.067-42.667 285.867-119.467s119.467-177.067 119.467-285.867c0-224-181.333-405.333-405.333-405.333-68.267 0-134.4 17.067-194.133 49.067l-213.333-55.467z" />
<glyph unicode="&#xe957;" glyph-name="envelope" d="M938.668 618.636h-11.852l-146.544 255.966c-11.354 19.79-29.688 33.936-51.626 39.81-8.156 2.178-16.45 3.148-24.662 2.874-13.77-0.458-27.304-4.354-39.546-11.478l-622.124-362.168c-27.222-15.844-42.44-44.734-42.314-74.334 0.060-14.304 3.73-28.774 11.312-42.016l116.688-203.808v-159.488c0-47.060 38.27-85.33 85.334-85.33h725.334c47.062 0 85.334 38.268 85.334 85.33v469.312c-0.002 47.060-38.272 85.33-85.334 85.33zM128 309.404l-78.872 137.768 78.872-10.62v-127.148zM128 533.332v-53.722l-79.346 10.684c3.586 6.534 8.258 12.498 15.118 16.494l65.396 38.070c-0.522-3.804-1.168-7.578-1.168-11.526zM730.124 867.064c5.23-3.56 9.852-7.946 13.106-13.628l134.404-234.77h-235.622l88.112 248.398zM685.44 868.7l-88.692-250.034h-340.804l429.496 250.034zM981.334 64c0-23.52-19.146-42.666-42.666-42.666h-725.334c-23.52 0-42.666 19.146-42.666 42.666v469.332c0 23.52 19.146 42.666 42.666 42.666h725.334c23.52 0 42.666-19.146 42.666-42.666v-469.332zM874.668 490.666h-170.668c-11.792 0-21.334-9.542-21.334-21.334v-213.332c0-11.792 9.542-21.334 21.334-21.334h170.666c11.792 0 21.334 9.542 21.334 21.334v213.332c0 11.792-9.54 21.334-21.332 21.334zM853.334 277.332h-128v170.668h128v-170.668zM618.668 149.332h-341.334c-11.792 0-21.334-9.542-21.334-21.334s9.542-21.334 21.334-21.334h341.334c11.792 0 21.334 9.542 21.334 21.334-0.002 11.794-9.542 21.334-21.334 21.334zM277.334 234.666h170.666c11.792 0 21.334 9.542 21.334 21.334s-9.542 21.334-21.334 21.334h-170.666c-11.792 0-21.334-9.542-21.334-21.334s9.542-21.334 21.334-21.334z" />
<glyph unicode="&#xe958;" glyph-name="b1" d="M346.028 953.58c-5.386-8.832-6.213-103.549-0.993-113.646 6.423-12.421 25.823-16.003 36.777-6.787 9.526 8.015 10.527 14.866 9.823 67.213-0.794 59.226-0.412 58.332-25.321 59.22l-16.274 0.581-4.012-6.582zM442.028 953.58c-6.38-10.46-6.244-176.22 0.148-184.351 12.626-16.051 34.189-13.952 42.179 4.104 3.584 8.105 3.779 13.596 3.228 91.502-0.704 99.932 0.929 93.811-25.27 94.746l-16.274 0.581-4.012-6.582zM642.468 919.562c-57.846-5.819-104.563-57.659-104.998-116.508-0.804-108.483 128.276-163.446 204.6-87.122 80.543 80.543 14.712 215.132-99.602 203.63zM669.133 869.827c84.905-15.547 70.157-146.493-15.675-139.182-83.016 7.073-89.574 125.489-7.716 139.32 5.092 0.86 9.766 1.672 10.391 1.8 0.622 0.131 6.472-0.742 13-1.938zM334.999 742.213c-75.771-22.111-112.515-112.033-72-176.21 2.749-4.357 5.002-8.392 5.002-8.963 0-0.573-19.758-1.042-43.904-1.042-24.466 0-48.591-0.98-54.5-2.22-41.961-8.788-74.967-40.996-83.387-81.377-3.707-17.777-2.97-143.132 0.886-150.589 8.463-16.366 32.251-17.815 42.248-2.573 3.315 5.053 3.748 12.186 4.657 76.667 1.134 80.724 0.822 79.124 18.642 95.549 16.85 15.534-4.59 14.543 315.359 14.543 319.946 0 298.506 0.991 315.356-14.543 17.528-16.156 17.559-16.3 18.253-83.955l0.609-59.5-107.689-0.003c-118.062 0-118.899-0.069-142.797-12.134-70.313-35.494-75.466-136.287-9.19-179.781 26.15-17.165 23.818-16.888 149.066-17.638l110.607-0.663-0.607-59.392-0.609-59.389-5.322-9.001c-7.068-11.953-14.572-18.813-26.678-24.392l-10.002-4.608h-581.998l-11.448 5.622c-29.061 14.272-31.552 22.628-31.552 105.833 0 71.296-0.192 72.686-11.231 81.37-10.801 8.494-29.683 3.72-35.738-9.039-4.475-9.431-4.454-136.481 0.026-153.679 7.562-29.043 28.974-55.813 55.060-68.849l12.521-6.257h714.721l12.521 6.257c26.086 13.036 47.498 39.805 55.060 68.849 3.884 14.904 4.669 442.972 0.847 461.297-7.316 35.087-34.542 65.516-69.788 77.996l-13.002 4.603-194.499 0.548c-106.975 0.302-194.501 0.945-194.501 1.431s3.113 6.546 6.917 13.468c49.5 90.051-39.235 200.563-137.917 171.766zM397 690.038c64.008-30.812 46.136-127.48-24.668-133.417-66.652-5.588-102.106 78.236-51.745 122.34 20.383 17.848 52.631 22.525 76.413 11.077zM851.827 502.866c12.234-3.633 26.271-15.503 32.842-27.776 4.116-7.693 4.36-11.018 4.941-67.589l0.609-59.502h-37.965l-0.635 63.501-0.632 63.501-5.652 13c-3.11 7.15-6.129 14.126-6.71 15.501-1.364 3.238 0.451 3.151 13.202-0.635zM889.999 242.952v-55.048l-151.498 0.548c-149.622 0.54-151.616 0.602-160.681 4.795-36.398 16.835-43.576 65.818-13.427 91.625 15.516 13.281 8.96 12.795 175.107 12.972l150.5 0.156v-55.048zM99 266.092c-13.056-5.399-18.685-23.567-11.067-35.712 11.866-18.911 41.070-13.391 45.184 8.543 3.482 18.552-16.494 34.46-34.117 27.169zM581.512 264.492c-3.018-1.874-6.843-6.259-8.499-9.751-12.091-25.477 19.034-48.387 38.833-28.588 20.198 20.198-6.062 53.386-30.333 38.339zM889.999 82.355c0-76.285-7.475-93.148-44.357-100.037l-9.006-1.682 5.491 11.182c8.742 17.805 9.874 28.032 9.874 89.28v56.901h37.998v-55.644z" />
<glyph unicode="&#xe959;" d="M104.533 25.6c-2.133 0-6.4 2.133-8.533 2.133-2.133 2.133-4.267 6.4-2.133 10.667l55.467 206.933c-34.133 61.867-53.333 132.267-53.333 204.8 0 228.267 187.733 413.867 416 413.867 110.933 0 215.467-42.667 294.4-121.6s121.6-183.467 121.6-294.4c0-228.267-185.6-416-416-416-68.267 0-134.4 17.067-194.133 49.067l-211.2-55.467h-2.133z" />
<glyph unicode="&#xe95a;" d="M512 853.333c108.8 0 209.067-42.667 285.867-119.467s119.467-177.067 119.467-285.867c0-224-181.333-405.333-405.333-405.333-68.267 0-134.4 17.067-194.133 49.067l-213.333-55.467 57.6 209.067c-36.267 61.867-55.467 132.267-55.467 202.667 0 224 181.333 405.333 405.333 405.333zM512 874.667c-234.667 0-426.667-192-426.667-426.667 0-72.533 17.067-142.933 53.333-204.8l-55.467-200.533c-2.133-6.4 0-14.933 6.4-21.333 4.267-4.267 8.533-6.4 14.933-6.4h6.4l206.933 53.333c59.733-32 128-46.933 196.267-46.933 234.667 0 426.667 192 426.667 426.667 0 113.067-44.8 221.867-123.733 300.8-83.2 81.067-189.867 125.867-305.067 125.867z" />
<glyph unicode="&#xe95b;" glyph-name="dots" d="M161.523 540.116c-66.445-21.24-88.084-107.062-39.967-158.505 50.255-53.727 142.751-32.056 163.272 38.252 21.821 74.757-49.139 143.962-123.305 120.253zM481.523 540.116c-66.445-21.24-88.084-107.062-39.967-158.505 50.255-53.727 142.751-32.056 163.272 38.252 21.821 74.757-49.139 143.962-123.305 120.253zM801.523 540.116c-66.445-21.24-88.084-107.062-39.967-158.505 50.255-53.727 142.751-32.056 163.272 38.252 21.821 74.757-49.139 143.962-123.305 120.253z" />
<glyph unicode="&#xe95c;" d="M750.933 686.933c-64 64-147.2 98.133-238.933 98.133-185.6 0-337.067-151.467-337.067-337.067 0-64 17.067-125.867 51.2-179.2l8.533-12.8-34.133-123.733 128 34.133 12.8-6.4c51.2-29.867 110.933-46.933 170.667-46.933 185.6 0 337.067 151.467 337.067 337.067 0 87.467-34.133 172.8-98.133 236.8z" />
<glyph unicode="&#xe95d;" glyph-name="chat-outline" d="M1020.314 156.312l-59.474 173.086c28.668 58.604 43.818 123.78 43.92 189.358 0.176 114.026-43.94 221.84-124.224 303.581-80.3 81.756-187.304 127.778-301.305 129.584-118.21 1.868-229.322-43.096-312.857-126.628-80.548-80.546-125.224-186.732-126.638-300.205-79.388-59.772-126.246-152.962-126.092-252.5 0.074-46.58 10.558-92.882 30.424-134.752l-40.966-119.216c-7.042-20.494-1.898-42.746 13.426-58.070 10.784-10.786 25.002-16.528 39.624-16.528 6.152 0 12.376 1.016 18.446 3.102l119.218 40.966c41.87-19.866 88.172-30.35 134.752-30.424 0.168 0 0.328 0 0.496 0 101.020 0.004 194.92 48.070 254.474 129.404 61.974 1.632 123.292 16.634 178.726 43.752l173.088-59.476c7.212-2.478 14.608-3.686 21.918-3.686 17.376 0 34.272 6.824 47.090 19.644 18.208 18.21 24.32 44.652 15.952 69.008zM329.061 18.618c-0.13 0-0.268 0-0.398 0-41.228 0.062-82.17 10.226-118.392 29.39-7.448 3.938-16.192 4.62-24.156 1.884l-122.246-42.006 42.006 122.244c2.736 7.966 2.056 16.71-1.884 24.156-19.164 36.224-29.328 77.164-29.392 118.394-0.102 66.318 25.696 129.176 70.81 176.244 14.736-89.832 57.55-172.612 123.914-237.796 65.874-64.702 148.678-105.898 238.022-119.366-47.176-46.498-110.768-73.144-178.284-73.144zM961.258 130.404c-1.734-1.734-3.79-2.206-6.102-1.41l-185.296 63.672c-3.218 1.106-6.566 1.654-9.902 1.654-4.918 0-9.818-1.19-14.252-3.538-52.906-27.988-112.69-42.832-172.894-42.924-0.198 0-0.378 0-0.576 0-201.726 0-368.353 163.868-371.549 365.547-1.61 101.57 37.026 197.028 108.788 268.791s167.236 110.384 268.793 108.784c201.872-3.202 365.853-170.136 365.541-372.127-0.094-60.204-14.936-119.99-42.922-172.892-3.94-7.446-4.62-16.19-1.884-24.156l63.67-185.296c0.794-2.32 0.318-4.374-1.414-6.104zM753.785 680.975h-363.121c-16.832 0-30.476-13.646-30.476-30.476 0-16.832 13.646-30.476 30.476-30.476h363.121c16.832 0 30.476 13.646 30.476 30.476s-13.644 30.476-30.476 30.476zM753.785 555.633h-363.121c-16.832 0-30.476-13.646-30.476-30.476s13.646-30.476 30.476-30.476h363.121c16.832 0 30.476 13.646 30.476 30.476s-13.644 30.476-30.476 30.476zM614.009 430.295h-223.346c-16.832 0-30.476-13.646-30.476-30.476 0-16.832 13.646-30.476 30.476-30.476h223.344c16.832 0 30.476 13.646 30.476 30.476s-13.642 30.476-30.474 30.476z" />
<glyph unicode="&#xe95e;" glyph-name="microphone-outline" d="M845.93 411.835c0 16.859-13.672 30.531-30.539 30.531s-30.539-13.672-30.539-30.531c0-149.375-121.516-270.891-270.891-270.891-149.367 0-270.883 121.516-270.883 270.891 0 16.859-13.672 30.531-30.539 30.531s-30.539-13.672-30.539-30.531c0-172.758 132.641-315.079 301.422-330.548v-82.211h-113.328c-16.867 0-30.539-13.672-30.539-30.539s13.672-30.539 30.539-30.539h287.743c16.859 0 30.531 13.672 30.531 30.539s-13.672 30.539-30.531 30.539h-113.336v82.211c168.789 15.461 301.43 157.789 301.43 330.548zM513.961 216.295c107.821 0 195.539 87.719 195.539 195.539v354.634c0 107.813-87.719 195.532-195.539 195.532-107.813 0-195.532-87.719-195.532-195.532v-354.634c0-107.821 87.719-195.539 195.532-195.539zM379.5 766.468c0 74.141 60.32 134.453 134.461 134.453s134.461-60.313 134.461-134.453v-354.634c0-74.141-60.32-134.461-134.461-134.461s-134.461 60.32-134.461 134.461z" />
<glyph unicode="&#xe95f;" glyph-name="microphone" d="M845.93 411.835c0 16.859-13.672 30.531-30.539 30.531s-30.539-13.672-30.539-30.531c0-149.375-121.516-270.891-270.891-270.891-149.367 0-270.883 121.516-270.883 270.891 0 16.859-13.672 30.531-30.539 30.531s-30.539-13.672-30.539-30.531c0-172.758 132.641-315.079 301.422-330.548v-82.211h-113.328c-16.867 0-30.539-13.672-30.539-30.539s13.672-30.539 30.539-30.539h287.743c16.859 0 30.531 13.672 30.531 30.539s-13.672 30.539-30.531 30.539h-113.336v82.211c168.789 15.461 301.43 157.789 301.43 330.548zM513.961 216.295c107.821 0 195.539 87.719 195.539 195.539v354.634c0 107.813-87.719 195.532-195.539 195.532-107.813 0-195.532-87.719-195.532-195.532v-354.634c0-107.821 87.719-195.539 195.532-195.539z" />
<glyph unicode="&#xe960;" glyph-name="alert-warning" d="M1007.676 169.244l-391.399 677.923c-21.764 37.696-60.746 60.204-104.278 60.204-43.53 0-82.514-22.508-104.278-60.204l-391.397-677.921c-21.766-37.7-21.766-82.712 0-120.41s60.746-60.204 104.278-60.204h782.794c43.53 0 82.512 22.508 104.28 60.202 21.766 37.7 21.766 82.712 0 120.41zM955.72 78.83c-10.922-18.916-30.482-30.208-52.324-30.208h-782.794c-21.844 0-41.404 11.292-52.324 30.208s-10.92 41.5 0 60.416l391.401 677.923c10.92 18.916 30.48 30.208 52.322 30.208 21.84 0 41.402-11.292 52.322-30.208l391.399-677.923c10.918-18.916 10.918-41.5-0.002-60.416zM482.001 607.981h59.992v-299.963h-59.992v299.963zM511.999 248.021c-22.054 0-39.996-17.942-39.996-39.996s17.942-39.996 39.996-39.996c22.052 0 39.996 17.942 39.996 39.996s-17.942 39.996-39.996 39.996z" />
<glyph unicode="&#xe961;" glyph-name="filter" d="M374.608 454.566c16.090-23.284 11.28-3.882 11.28-467.994 0-41.532 47.384-65.302 80.78-40.46 142.706 107.594 171.218 116.912 171.218 167.238 0 338.208-3.942 319.188 11.28 341.216l231.738 315.436h-738.032zM968.442 934.28c-8.28 15.86-24.52 25.72-42.398 25.72h-828.312c-38.61 0-61.328-43.554-39.18-75.2 0.182-0.304-2.514 3.386 40.24-54.8h826.19c36.434 49.586 60.788 71.010 43.46 104.28z" />
</font>
</defs>
</svg>
